<svg width="225" height="314" xmlns="http://www.w3.org/2000/svg">
 <title>playerCard_0.svg</title>

 <g>
  <title>Layer 1</title>
  <rect fill="#fff" stroke="#000" x="236" y="395.5" width="1" height="0" id="svg_6"/>
  <path id="svg_1" d="m-22.18583,-145.64304l-29.04914,20.29143l145.99999,0l0,-101.99999l-116.95085,81.70856zm68.46568,-44.83847c1.05489,-0.72512 2.72229,-0.72512 3.76584,0l6.57888,4.59242c1.04355,0.72512 1.05489,1.90195 0.01134,2.62707c-0.52177,0.36058 -1.20802,0.54285 -1.88292,0.54285c-0.68624,0 -1.36115,-0.18227 -1.87158,-0.54285l-6.60156,-4.59242c-1.03787,-0.72512 -1.03787,-1.89799 0,-2.62707zm-9.07998,6.35568c1.04355,-0.72512 2.72229,-0.72512 3.7545,0l12.22763,8.535c1.04355,0.72512 1.04355,1.90195 0.01134,2.61914c-0.52177,0.36454 -1.20802,0.55077 -1.89426,0.55077s-1.36115,-0.18227 -1.87158,-0.54285l-12.22763,-8.535c-1.04355,-0.72512 -1.04355,-1.90195 0,-2.62707l0,0.00001zm-9.097,6.3438c1.04355,-0.72512 2.72229,-0.72512 3.76584,0l6.57888,4.60034c1.04355,0.72512 1.0322,1.90195 -0.01134,2.62707c-0.52177,0.36454 -1.19667,0.54681 -1.87158,0.54681c-0.68624,0 -1.36115,-0.18227 -1.88292,-0.54681l-6.57888,-4.59638c-1.03787,-0.72512 -1.03787,-1.90591 0,-2.63103zm-9.07998,6.35172c1.04355,-0.72512 2.72229,-0.71719 3.76584,0.00792l6.56753,4.59242c1.03787,0.72908 1.03787,1.90195 0,2.62707c-0.52177,0.36454 -1.20235,0.54681 -1.88292,0.54681c-0.6749,0 -1.36115,-0.18227 -1.88292,-0.54681l-6.56753,-4.60034c-1.03787,-0.72908 -1.03787,-1.90195 0,-2.62707zm-9.09133,6.35568c1.03787,-0.72908 2.71662,-0.72908 3.76017,0l12.21629,8.53104c1.04355,0.72908 1.04355,1.90591 0,2.63499c-0.52177,0.36454 -1.19667,0.54681 -1.87158,0.54681c-0.68624,0 -1.37249,-0.18227 -1.89426,-0.54681l-12.21062,-8.53896c-1.03787,-0.72908 -1.03787,-1.90195 0,-2.62707zm-11.29185,30.20534c-0.5161,0.3685 -1.20235,0.55077 -1.88292,0.55077c-0.6749,0 -1.3498,-0.17831 -1.87158,-0.54285l-12.21629,-8.53104c-1.04355,-0.72512 -1.04355,-1.89799 0,-2.62707s2.71662,-0.72908 3.7545,0l12.21629,8.53104c1.03787,0.72116 1.03787,1.89403 0,2.61914l0,0.00001zm3.45958,-10.29034c-0.52744,0.3685 -1.21369,0.55077 -1.88859,0.55077c-0.68057,0 -1.36115,-0.17831 -1.87158,-0.54285l-6.59022,-4.60034c-1.04355,-0.72512 -1.04355,-1.89799 0,-2.61518c1.04355,-0.73304 2.72229,-0.74097 3.76584,-0.01189l6.58455,4.6043c1.03787,0.71323 1.03787,1.89006 0,2.61518l0,0.00001zm9.07998,-6.34776c-0.52177,0.36454 -1.19667,0.54681 -1.88292,0.54681c-0.6749,0 -1.35548,-0.18227 -1.87725,-0.54681l-6.5732,-4.59638c-1.04355,-0.72908 -1.04355,-1.90195 0,-2.63103s2.72229,-0.72116 3.76017,0.00792l6.5732,4.60034c1.03787,0.72512 1.03787,1.90195 0,2.61914l0,0.00001zm55.22285,6.3438l-49.17142,0l49.17142,-34.35397l0,34.35397zm-0.68057,-44.44619c-0.51043,0.36454 -1.19667,0.54681 -1.87158,0.54681c-0.68624,0 -1.37249,-0.18227 -1.89426,-0.54681l-6.57888,-4.59242c-1.04355,-0.72512 -1.04355,-1.89799 0,-2.62707c1.0322,-0.72512 2.71662,-0.72512 3.7545,0l6.57888,4.59242c1.04355,0.72908 1.04922,1.90195 0.01134,2.62707zm14.72307,-2.40914c-0.52177,0.36454 -1.20802,0.54285 -1.88292,0.54285s-1.36115,-0.17831 -1.87158,-0.54285l-12.21629,-8.535c-1.04355,-0.72512 -1.04355,-1.90591 0,-2.63103s2.73364,-0.71719 3.76584,0.00792l12.21629,8.535c1.03787,0.72512 1.02653,1.90195 -0.01134,2.62311z" stroke-width="3" stroke="#000" fill="#fff"/>
  <path id="svg_2" d="m43.48651,-46.1005l-15.12147,37.59883l76.00001,0l0,-189l-60.87853,151.40118l-0.00001,-0.00001zm35.63967,-83.08306c0.54912,-1.3436 1.41708,-1.3436 1.9603,0l3.42462,8.50948c0.54322,1.3436 0.54912,3.5242 0.0059,4.8678c-0.27161,0.66813 -0.62883,1.00587 -0.98015,1.00587c-0.35722,0 -0.70854,-0.33774 -0.97425,-1.00587l-3.43643,-8.50948c-0.54026,-1.3436 -0.54026,-3.51686 0,-4.8678l0.00001,0zm-4.72657,11.77671c0.54322,-1.3436 1.41708,-1.3436 1.9544,0l6.36507,15.81486c0.54322,1.3436 0.54322,3.5242 0.0059,4.85312c-0.27161,0.67547 -0.62883,1.02055 -0.98605,1.02055s-0.70854,-0.33774 -0.97425,-1.00587l-6.36507,-15.81486c-0.54322,-1.3436 -0.54322,-3.5242 0,-4.8678zm-4.73542,11.75468c0.54322,-1.3436 1.41708,-1.3436 1.9603,0l3.42462,8.52416c0.54322,1.3436 0.53731,3.5242 -0.0059,4.8678c-0.27161,0.67547 -0.62293,1.01321 -0.97425,1.01321c-0.35722,0 -0.70854,-0.33774 -0.98015,-1.01321l-3.42462,-8.51682c-0.54026,-1.3436 -0.54026,-3.53154 0,-4.87515l0,0.00001zm-4.72657,11.76937c0.54322,-1.3436 1.41708,-1.32892 1.9603,0.01468l3.41872,8.50948c0.54026,1.35094 0.54026,3.5242 0,4.8678c-0.27161,0.67547 -0.62588,1.01321 -0.98015,1.01321c-0.35132,0 -0.70854,-0.33774 -0.98015,-1.01321l-3.41872,-8.52416c-0.54026,-1.35094 -0.54026,-3.5242 0,-4.8678zm-4.73247,11.77671c0.54026,-1.35094 1.41413,-1.35094 1.95735,0l6.35917,15.80751c0.54322,1.35094 0.54322,3.53154 0,4.88249c-0.27161,0.67547 -0.62293,1.01321 -0.97425,1.01321c-0.35722,0 -0.71445,-0.33774 -0.98605,-1.01321l-6.35621,-15.8222c-0.54026,-1.35094 -0.54026,-3.5242 0,-4.8678l-0.00001,0zm-5.87795,55.96873c-0.26866,0.68281 -0.62588,1.02055 -0.98015,1.02055c-0.35132,0 -0.70264,-0.33039 -0.97425,-1.00587l-6.35917,-15.80751c-0.54322,-1.3436 -0.54322,-3.51686 0,-4.8678s1.41413,-1.35094 1.9544,0l6.35917,15.80751c0.54026,1.33626 0.54026,3.50952 0,4.85312zm1.80088,-19.0674c-0.27456,0.68281 -0.63178,1.02055 -0.9831,1.02055c-0.35427,0 -0.70854,-0.33039 -0.97425,-1.00587l-3.43053,-8.52416c-0.54322,-1.3436 -0.54322,-3.51686 0,-4.84578c0.54322,-1.35829 1.41708,-1.37297 1.9603,-0.02203l3.42757,8.53151c0.54026,1.32158 0.54026,3.50218 0,4.84578l0.00001,0zm4.72657,-11.76202c-0.27161,0.67547 -0.62293,1.01321 -0.98015,1.01321c-0.35132,0 -0.70559,-0.33774 -0.9772,-1.01321l-3.42167,-8.51682c-0.54322,-1.35094 -0.54322,-3.5242 0,-4.87515s1.41708,-1.33626 1.95735,0.01468l3.42167,8.52416c0.54026,1.3436 0.54026,3.5242 0,4.85312l0,0.00001zm28.74615,11.75468l-25.59609,0l25.59609,-63.65589l0,63.65589zm-0.35427,-82.35619c-0.2657,0.67547 -0.62293,1.01321 -0.97425,1.01321c-0.35722,0 -0.71445,-0.33774 -0.98605,-1.01321l-3.42462,-8.50948c-0.54322,-1.3436 -0.54322,-3.51686 0,-4.8678c0.53731,-1.3436 1.41413,-1.3436 1.9544,0l3.42462,8.50948c0.54322,1.35094 0.54617,3.5242 0.0059,4.8678zm7.66406,-4.46399c-0.27161,0.67547 -0.62883,1.00587 -0.98015,1.00587s-0.70854,-0.33039 -0.97425,-1.00587l-6.35917,-15.81486c-0.54322,-1.3436 -0.54322,-3.53154 0,-4.87515s1.42299,-1.32892 1.9603,0.01468l6.35917,15.81486c0.54026,1.3436 0.53436,3.5242 -0.0059,4.86046l0,0.00001z" stroke-width="3" stroke="#000" fill="#fff"/>
  <path id="svg_8" d="m346.76362,177.42812l-7.95867,8.3553l40,0l0,-42.00001l-32.04134,33.64471l0.00001,0zm18.75772,-18.46291c0.28901,-0.29858 0.74583,-0.29858 1.03174,0l1.80243,1.891c0.2859,0.29858 0.28901,0.78316 0.00311,1.08173c-0.14295,0.14847 -0.33096,0.22353 -0.51587,0.22353c-0.18801,0 -0.37292,-0.07505 -0.51276,-0.22353l-1.80865,-1.891c-0.28435,-0.29858 -0.28435,-0.78152 0,-1.08173zm-2.48767,2.61705c0.2859,-0.29858 0.74583,-0.29858 1.02863,0l3.35004,3.51441c0.2859,0.29858 0.2859,0.78316 0.00311,1.07847c-0.14295,0.1501 -0.33096,0.22679 -0.51898,0.22679s-0.37292,-0.07505 -0.51276,-0.22353l-3.35004,-3.51441c-0.2859,-0.29858 -0.2859,-0.78316 0,-1.08173zm-2.49233,2.61215c0.2859,-0.29858 0.74583,-0.29858 1.03174,0l1.80243,1.89426c0.2859,0.29858 0.2828,0.78316 -0.00311,1.08173c-0.14295,0.1501 -0.32786,0.22516 -0.51276,0.22516c-0.18801,0 -0.37292,-0.07505 -0.51587,-0.22516l-1.80243,-1.89263c-0.28435,-0.29858 -0.28435,-0.78479 0,-1.08337l0,0.00001zm-2.48767,2.61542c0.2859,-0.29858 0.74583,-0.29532 1.03174,0.00326l1.79932,1.891c0.28435,0.30021 0.28435,0.78316 0,1.08173c-0.14295,0.1501 -0.32941,0.22516 -0.51587,0.22516c-0.1849,0 -0.37292,-0.07505 -0.51587,-0.22516l-1.79932,-1.89426c-0.28435,-0.30021 -0.28435,-0.78316 0,-1.08173zm-2.49077,2.61705c0.28435,-0.30021 0.74428,-0.30021 1.03018,0l3.34693,3.51278c0.2859,0.30021 0.2859,0.78479 0,1.085c-0.14295,0.1501 -0.32786,0.22516 -0.51276,0.22516c-0.18801,0 -0.37602,-0.07505 -0.51898,-0.22516l-3.34538,-3.51604c-0.28435,-0.30021 -0.28435,-0.78316 0,-1.08173l0.00001,-0.00001zm-3.09366,12.4375c-0.1414,0.15174 -0.32941,0.22679 -0.51587,0.22679c-0.1849,0 -0.36981,-0.07342 -0.51276,-0.22353l-3.34693,-3.51278c-0.2859,-0.29858 -0.2859,-0.78152 0,-1.08173s0.74428,-0.30021 1.02863,0l3.34693,3.51278c0.28435,0.29695 0.28435,0.77989 0,1.07847zm0.94783,-4.2372c-0.14451,0.15174 -0.33252,0.22679 -0.51742,0.22679c-0.18646,0 -0.37292,-0.07342 -0.51276,-0.22353l-1.80554,-1.89426c-0.2859,-0.29858 -0.2859,-0.78152 0,-1.07684c0.2859,-0.30184 0.74583,-0.3051 1.03174,-0.00489l1.80399,1.89589c0.28435,0.29368 0.28435,0.77826 0,1.07684l-0.00001,0zm2.48767,-2.61378c-0.14295,0.1501 -0.32786,0.22516 -0.51587,0.22516c-0.1849,0 -0.37136,-0.07505 -0.51431,-0.22516l-1.80088,-1.89263c-0.2859,-0.30021 -0.2859,-0.78316 0,-1.08337s0.74583,-0.29695 1.03018,0.00326l1.80088,1.89426c0.28435,0.29858 0.28435,0.78316 0,1.07847l0,0.00001zm15.12955,2.61215l-13.47162,0l13.47162,-14.14576l0,14.14576zm-0.18646,-18.30138c-0.13984,0.1501 -0.32786,0.22516 -0.51276,0.22516c-0.18801,0 -0.37602,-0.07505 -0.51898,-0.22516l-1.80243,-1.891c-0.2859,-0.29858 -0.2859,-0.78152 0,-1.08173c0.2828,-0.29858 0.74428,-0.29858 1.02863,0l1.80243,1.891c0.2859,0.30021 0.28746,0.78316 0.00311,1.08173zm4.03372,-0.992c-0.14295,0.1501 -0.33096,0.22353 -0.51587,0.22353s-0.37292,-0.07342 -0.51276,-0.22353l-3.34693,-3.51441c-0.2859,-0.29858 -0.2859,-0.78479 0,-1.08337s0.74894,-0.29532 1.03174,0.00326l3.34693,3.51441c0.28435,0.29858 0.28124,0.78316 -0.00311,1.0801l0,0.00001z" stroke-width="3" stroke="#000" fill="#fff"/>
  <path id="svg_9" d="m313.13194,-99.36713l-13.1318,16.71059l66.00001,0l0,-83.99999l-52.8682,67.2894l-0.00001,0zm30.95024,-36.9258c0.47687,-0.59716 1.23063,-0.59716 1.70237,0l2.97401,3.78199c0.47174,0.59716 0.47687,1.56631 0.00513,2.16347c-0.23587,0.29695 -0.54609,0.44705 -0.85118,0.44705c-0.31022,0 -0.61531,-0.1501 -0.84606,-0.44705l-2.98427,-3.78199c-0.46918,-0.59716 -0.46918,-1.56305 0,-2.16347zm-4.10465,5.23409c0.47174,-0.59716 1.23063,-0.59716 1.69724,0l5.52756,7.02882c0.47174,0.59716 0.47174,1.56631 0.00513,2.15694c-0.23587,0.30021 -0.54609,0.45358 -0.85631,0.45358s-0.61531,-0.1501 -0.84606,-0.44705l-5.52756,-7.02882c-0.47174,-0.59716 -0.47174,-1.56631 0,-2.16347zm-4.11234,5.2243c0.47174,-0.59716 1.23063,-0.59716 1.70237,0l2.97401,3.78852c0.47174,0.59716 0.46661,1.56631 -0.00513,2.16347c-0.23587,0.30021 -0.54096,0.45031 -0.84606,0.45031c-0.31022,0 -0.61531,-0.1501 -0.85118,-0.45031l-2.97401,-3.78525c-0.46918,-0.59716 -0.46918,-1.56957 0,-2.16673l0,-0.00001zm-4.10465,5.23083c0.47174,-0.59716 1.23063,-0.59063 1.70237,0.00653l2.96889,3.78199c0.46918,0.60042 0.46918,1.56631 0,2.16347c-0.23587,0.30021 -0.54353,0.45031 -0.85118,0.45031c-0.30509,0 -0.61531,-0.1501 -0.85118,-0.45031l-2.96889,-3.78852c-0.46918,-0.60042 -0.46918,-1.56631 0,-2.16347l-0.00001,0zm-4.10978,5.23409c0.46918,-0.60042 1.22806,-0.60042 1.6998,0l5.52243,7.02556c0.47174,0.60042 0.47174,1.56957 0,2.16999c-0.23587,0.30021 -0.54096,0.45031 -0.84606,0.45031c-0.31022,0 -0.62044,-0.1501 -0.85631,-0.45031l-5.51987,-7.03209c-0.46918,-0.60042 -0.46918,-1.56631 0,-2.16347l0.00001,0.00001zm-5.10453,24.87499c-0.23331,0.30347 -0.54353,0.45358 -0.85118,0.45358c-0.30509,0 -0.61019,-0.14684 -0.84606,-0.44705l-5.52243,-7.02556c-0.47174,-0.59716 -0.47174,-1.56305 0,-2.16347s1.22806,-0.60042 1.69724,0l5.52243,7.02556c0.46918,0.59389 0.46918,1.55979 0,2.15694zm1.56392,-8.4744c-0.23843,0.30347 -0.54865,0.45358 -0.85375,0.45358c-0.30766,0 -0.61531,-0.14684 -0.84606,-0.44705l-2.97914,-3.78852c-0.47174,-0.59716 -0.47174,-1.56305 0,-2.15368c0.47174,-0.60368 1.23063,-0.61021 1.70237,-0.00979l2.97658,3.79178c0.46918,0.58737 0.46918,1.55652 0,2.15368zm4.10465,-5.22757c-0.23587,0.30021 -0.54096,0.45031 -0.85118,0.45031c-0.30509,0 -0.61275,-0.1501 -0.84862,-0.45031l-2.97145,-3.78525c-0.47174,-0.60042 -0.47174,-1.56631 0,-2.16673s1.23063,-0.59389 1.6998,0.00653l2.97145,3.78852c0.46918,0.59716 0.46918,1.56631 0,2.15694l0,-0.00001zm24.96376,5.2243l-22.22818,0l22.22818,-28.2915l0,28.2915zm-0.30766,-36.60275c-0.23074,0.30021 -0.54096,0.45031 -0.84606,0.45031c-0.31022,0 -0.62044,-0.1501 -0.85631,-0.45031l-2.97401,-3.78199c-0.47174,-0.59716 -0.47174,-1.56305 0,-2.16347c0.46661,-0.59716 1.22806,-0.59716 1.69724,0l2.97401,3.78199c0.47174,0.60042 0.4743,1.56631 0.00513,2.16347zm6.65564,-1.98399c-0.23587,0.30021 -0.54609,0.44705 -0.85118,0.44705s-0.61531,-0.14684 -0.84606,-0.44705l-5.52243,-7.02882c-0.47174,-0.59716 -0.47174,-1.56957 0,-2.16673s1.23575,-0.59063 1.70237,0.00653l5.52243,7.02882c0.46918,0.59716 0.46405,1.56631 -0.00513,2.1602z" stroke-width="3" stroke="#000" fill="#fff"/>
  <rect id="svg_11" height="312" width="223" y="1" x="1" stroke-width="5" stroke="#000000" fill="#fff"/>
  <path id="svg_13" d="m-137.601,175.72648l-0.19898,0.02561l1.00006,0l0,-0.12871l-0.80108,0.10311l0,-0.00001zm0.46897,-0.05658c0.00723,-0.00092 0.01865,-0.00092 0.02579,0l0.04506,0.0058c0.00715,0.00092 0.00723,0.0024 0.00008,0.00332c-0.00357,0.00046 -0.00827,0.00069 -0.0129,0.00069c-0.0047,0 -0.00932,-0.00023 -0.01282,-0.00069l-0.04522,-0.0058c-0.00711,-0.00092 -0.00711,-0.0024 0,-0.00332l0.00001,0zm-0.0622,0.00802c0.00715,-0.00092 0.01865,-0.00092 0.02572,0l0.08376,0.01077c0.00715,0.00092 0.00715,0.0024 0.00008,0.00331c-0.00357,0.00046 -0.00827,0.0007 -0.01298,0.0007s-0.00932,-0.00023 -0.01282,-0.00069l-0.08376,-0.01077c-0.00715,-0.00092 -0.00715,-0.0024 0,-0.00332zm-0.06231,0.00801c0.00715,-0.00092 0.01865,-0.00092 0.02579,0l0.04506,0.00581c0.00715,0.00092 0.00707,0.0024 -0.00008,0.00332c-0.00357,0.00046 -0.0082,0.00069 -0.01282,0.00069c-0.0047,0 -0.00932,-0.00023 -0.0129,-0.00069l-0.04506,-0.0058c-0.00711,-0.00092 -0.00711,-0.00241 0,-0.00332l0.00001,-0.00001zm-0.0622,0.00802c0.00715,-0.00092 0.01865,-0.00091 0.02579,0.00001l0.04499,0.0058c0.00711,0.00092 0.00711,0.0024 0,0.00332c-0.00357,0.00046 -0.00824,0.00069 -0.0129,0.00069c-0.00462,0 -0.00932,-0.00023 -0.0129,-0.00069l-0.04499,-0.00581c-0.00711,-0.00092 -0.00711,-0.0024 0,-0.00332l0.00001,0zm-0.06227,0.00802c0.00711,-0.00092 0.01861,-0.00092 0.02576,0l0.08368,0.01077c0.00715,0.00092 0.00715,0.00241 0,0.00333c-0.00357,0.00046 -0.0082,0.00069 -0.01282,0.00069c-0.0047,0 -0.0094,-0.00023 -0.01298,-0.00069l-0.08364,-0.01078c-0.00711,-0.00092 -0.00711,-0.0024 0,-0.00332zm-0.07735,0.03812c-0.00354,0.00047 -0.00824,0.0007 -0.0129,0.0007c-0.00462,0 -0.00925,-0.00023 -0.01282,-0.00069l-0.08368,-0.01077c-0.00715,-0.00092 -0.00715,-0.0024 0,-0.00332s0.01861,-0.00092 0.02572,0l0.08368,0.01077c0.00711,0.00091 0.00711,0.00239 0,0.00331zm0.0237,-0.01299c-0.00361,0.00047 -0.00831,0.0007 -0.01294,0.0007c-0.00466,0 -0.00932,-0.00023 -0.01282,-0.00069l-0.04514,-0.00581c-0.00715,-0.00092 -0.00715,-0.0024 0,-0.0033c0.00715,-0.00093 0.01865,-0.00094 0.02579,-0.00002l0.0451,0.00581c0.00711,0.0009 0.00711,0.00239 0,0.0033l0.00001,0.00001zm0.0622,-0.00801c-0.00357,0.00046 -0.0082,0.00069 -0.0129,0.00069c-0.00462,0 -0.00928,-0.00023 -0.01286,-0.00069l-0.04502,-0.0058c-0.00715,-0.00092 -0.00715,-0.0024 0,-0.00332s0.01865,-0.00091 0.02576,0.00001l0.04502,0.00581c0.00711,0.00092 0.00711,0.0024 0,0.00331l0,-0.00001zm0.37826,0.00801l-0.33681,0l0.33681,-0.04335l0,0.04335zm-0.00466,-0.05609c-0.0035,0.00046 -0.0082,0.00069 -0.01282,0.00069c-0.0047,0 -0.0094,-0.00023 -0.01298,-0.00069l-0.04506,-0.0058c-0.00715,-0.00092 -0.00715,-0.0024 0,-0.00332c0.00707,-0.00092 0.01861,-0.00092 0.02572,0l0.04506,0.0058c0.00715,0.00092 0.00719,0.0024 0.00008,0.00332zm0.10085,-0.00304c-0.00357,0.00046 -0.00827,0.00069 -0.0129,0.00069s-0.00932,-0.00023 -0.01282,-0.00069l-0.08368,-0.01077c-0.00715,-0.00092 -0.00715,-0.00241 0,-0.00332s0.01872,-0.00091 0.02579,0.00001l0.08368,0.01077c0.00711,0.00092 0.00703,0.0024 -0.00008,0.00331l0.00001,0z" stroke="#000" fill="#fff"/>
  <path id="svg_14" d="m-114.32121,106.00794l-19.49874,32.62544l98.00001,0l0,-164.00001l-78.50127,131.37457zm45.95642,-72.09324c0.70808,-1.16588 1.82729,-1.16588 2.52776,0l4.41596,7.38389c0.70046,1.16588 0.70808,3.05804 0.00761,4.22391c-0.35023,0.57975 -0.81086,0.87281 -1.26388,0.87281c-0.46063,0 -0.91365,-0.29306 -1.25626,-0.87281l-4.43119,-7.38389c-0.69666,-1.16588 -0.69666,-3.05167 0,-4.22391zm-6.09478,10.21894c0.70046,-1.16588 1.82729,-1.16588 2.52014,0l8.20759,13.72294c0.70046,1.16588 0.70046,3.05804 0.00761,4.21117c-0.35023,0.58612 -0.81086,0.88556 -1.27149,0.88556s-0.91365,-0.29306 -1.25626,-0.87281l-8.20759,-13.72294c-0.70046,-1.16588 -0.70046,-3.05804 0,-4.22391l0,-0.00001zm-6.1062,10.19983c0.70046,-1.16588 1.82729,-1.16588 2.52776,0l4.41596,7.39663c0.70046,1.16588 0.69285,3.05804 -0.00761,4.22391c-0.35023,0.58612 -0.80325,0.87919 -1.25626,0.87919c-0.46063,0 -0.91365,-0.29306 -1.26388,-0.87919l-4.41596,-7.39026c-0.69666,-1.16588 -0.69666,-3.06441 0,-4.23029l-0.00001,0.00001zm-6.09478,10.21257c0.70046,-1.16588 1.82729,-1.15314 2.52776,0.01274l4.40834,7.38389c0.69666,1.17225 0.69666,3.05804 0,4.22391c-0.35023,0.58612 -0.80705,0.87919 -1.26388,0.87919c-0.45302,0 -0.91365,-0.29306 -1.26388,-0.87919l-4.40834,-7.39663c-0.69666,-1.17225 -0.69666,-3.05804 0,-4.22391zm-6.1024,10.21894c0.69666,-1.17225 1.82349,-1.17225 2.52395,0l8.19998,13.71657c0.70046,1.17225 0.70046,3.06441 0,4.23666c-0.35023,0.58612 -0.80325,0.87919 -1.25626,0.87919c-0.46063,0 -0.92126,-0.29306 -1.27149,-0.87919l-8.19617,-13.72931c-0.69666,-1.17225 -0.69666,-3.05804 0,-4.22391l-0.00001,-0.00001zm-7.57946,48.56546c-0.34642,0.59249 -0.80705,0.88556 -1.26388,0.88556c-0.45302,0 -0.90603,-0.28669 -1.25626,-0.87281l-8.19998,-13.71657c-0.70046,-1.16588 -0.70046,-3.05167 0,-4.22391s1.82349,-1.17225 2.52014,0l8.19998,13.71657c0.69666,1.15951 0.69666,3.0453 0,4.21117l0,-0.00001zm2.32218,-16.54526c-0.35404,0.59249 -0.81467,0.88556 -1.26768,0.88556c-0.45682,0 -0.91365,-0.28669 -1.25626,-0.87281l-4.42357,-7.39663c-0.70046,-1.16588 -0.70046,-3.05167 0,-4.2048c0.70046,-1.17862 1.82729,-1.19136 2.52776,-0.01911l4.41977,7.403c0.69666,1.14676 0.69666,3.03892 0,4.2048l-0.00002,-0.00001zm6.09478,-10.2062c-0.35023,0.58612 -0.80325,0.87919 -1.26388,0.87919c-0.45302,0 -0.90984,-0.29306 -1.26007,-0.87919l-4.41215,-7.39026c-0.70046,-1.17225 -0.70046,-3.05804 0,-4.23029s1.82729,-1.15951 2.52395,0.01274l4.41215,7.39663c0.69666,1.16588 0.69666,3.05804 0,4.21117l0,0.00001zm37.0674,10.19983l-33.00548,0l33.00548,-55.2358l0,55.2358zm-0.45682,-71.46252c-0.34262,0.58612 -0.80325,0.87919 -1.25626,0.87919c-0.46063,0 -0.92126,-0.29306 -1.27149,-0.87919l-4.41596,-7.38389c-0.70046,-1.16588 -0.70046,-3.05167 0,-4.22391c0.69285,-1.16588 1.82349,-1.16588 2.52014,0l4.41596,7.38389c0.70046,1.17225 0.70427,3.05804 0.00761,4.22391zm9.88261,-3.87351c-0.35023,0.58612 -0.81086,0.87281 -1.26388,0.87281s-0.91365,-0.28669 -1.25626,-0.87281l-8.19998,-13.72294c-0.70046,-1.16588 -0.70046,-3.06441 0,-4.23029s1.83491,-1.15314 2.52776,0.01274l8.19998,13.72294c0.69666,1.16588 0.68904,3.05804 -0.00761,4.21754l-0.00001,0.00001z" stroke="#000" fill="#fff"/>
  <path stroke="#000" id="svg_15" d="m188.76871,303.00701l-7.95867,8.15636l40,0l0,-40.99999l-32.04133,32.84363zm18.75772,-18.0233c0.28901,-0.29147 0.74583,-0.29147 1.03174,0l1.80243,1.84597c0.2859,0.29147 0.28901,0.76451 0.00311,1.05598c-0.14295,0.14494 -0.33096,0.2182 -0.51587,0.2182c-0.18801,0 -0.37292,-0.07327 -0.51276,-0.2182l-1.80865,-1.84597c-0.28435,-0.29147 -0.28435,-0.76292 0,-1.05598zm-2.48767,2.55473c0.2859,-0.29147 0.74583,-0.29147 1.02863,0l3.35004,3.43073c0.2859,0.29147 0.2859,0.76451 0.00311,1.05279c-0.14295,0.14653 -0.33096,0.22139 -0.51898,0.22139s-0.37292,-0.07327 -0.51276,-0.2182l-3.35004,-3.43073c-0.2859,-0.29147 -0.2859,-0.76451 0,-1.05598zm-2.49233,2.54996c0.2859,-0.29147 0.74583,-0.29147 1.03174,0l1.80243,1.84916c0.2859,0.29147 0.2828,0.76451 -0.00311,1.05598c-0.14295,0.14653 -0.32786,0.2198 -0.51276,0.2198c-0.18801,0 -0.37292,-0.07327 -0.51587,-0.2198l-1.80243,-1.84756c-0.28435,-0.29147 -0.28435,-0.7661 0,-1.05757l0,-0.00001zm-2.48767,2.55314c0.2859,-0.29147 0.74583,-0.28828 1.03174,0.00319l1.79932,1.84597c0.28435,0.29306 0.28435,0.76451 0,1.05598c-0.14295,0.14653 -0.32941,0.2198 -0.51587,0.2198c-0.1849,0 -0.37292,-0.07327 -0.51587,-0.2198l-1.79932,-1.84916c-0.28435,-0.29306 -0.28435,-0.76451 0,-1.05598zm-2.49077,2.55473c0.28435,-0.29306 0.74428,-0.29306 1.03018,0l3.34693,3.42914c0.2859,0.29306 0.2859,0.7661 0,1.05916c-0.14295,0.14653 -0.32786,0.2198 -0.51276,0.2198c-0.18801,0 -0.37602,-0.07327 -0.51898,-0.2198l-3.34538,-3.43233c-0.28435,-0.29306 -0.28435,-0.76451 0,-1.05598l0.00001,0.00001zm-3.09366,12.14136c-0.1414,0.14812 -0.32941,0.22139 -0.51587,0.22139c-0.1849,0 -0.36981,-0.07167 -0.51276,-0.2182l-3.34693,-3.42914c-0.2859,-0.29147 -0.2859,-0.76292 0,-1.05598s0.74428,-0.29306 1.02863,0l3.34693,3.42914c0.28435,0.28988 0.28435,0.76132 0,1.05279zm0.94783,-4.13631c-0.14451,0.14812 -0.33252,0.22139 -0.51742,0.22139c-0.18646,0 -0.37292,-0.07167 -0.51276,-0.2182l-1.80554,-1.84916c-0.2859,-0.29147 -0.2859,-0.76292 0,-1.0512c0.2859,-0.29465 0.74583,-0.29784 1.03174,-0.00478l1.80399,1.85075c0.28435,0.28669 0.28435,0.75973 0,1.0512l-0.00001,0zm2.48767,-2.55155c-0.14295,0.14653 -0.32786,0.2198 -0.51587,0.2198c-0.1849,0 -0.37136,-0.07327 -0.51431,-0.2198l-1.80088,-1.84756c-0.2859,-0.29306 -0.2859,-0.76451 0,-1.05757s0.74583,-0.28988 1.03018,0.00319l1.80088,1.84916c0.28435,0.29147 0.28435,0.76451 0,1.05279l0,-0.00001zm15.12955,2.54996l-13.47162,0l13.47162,-13.80895l0,13.80895zm-0.18646,-17.86562c-0.13984,0.14653 -0.32786,0.2198 -0.51276,0.2198c-0.18801,0 -0.37602,-0.07327 -0.51898,-0.2198l-1.80243,-1.84597c-0.2859,-0.29147 -0.2859,-0.76292 0,-1.05598c0.2828,-0.29147 0.74428,-0.29147 1.02863,0l1.80243,1.84597c0.2859,0.29306 0.28746,0.76451 0.00311,1.05598zm4.03372,-0.96838c-0.14295,0.14653 -0.33096,0.2182 -0.51587,0.2182s-0.37292,-0.07167 -0.51276,-0.2182l-3.34693,-3.43073c-0.2859,-0.29147 -0.2859,-0.7661 0,-1.05757s0.74894,-0.28828 1.03174,0.00319l3.34693,3.43073c0.28435,0.29147 0.28124,0.76451 -0.00311,1.05439l0,-0.00001z" fill="#fff"/>
  <path transform="rotate(90 23.81 290.663)" stroke="#000" id="svg_16" d="m11.76871,303.00701l-7.95867,8.15635l40,0l0,-40.99999l-32.04133,32.84364zm18.75772,-18.02331c0.28901,-0.29147 0.74584,-0.29147 1.03174,0l1.80243,1.84597c0.2859,0.29147 0.28901,0.76451 0.00311,1.05598c-0.14295,0.14494 -0.33096,0.21821 -0.51587,0.21821c-0.18801,0 -0.37292,-0.07327 -0.51276,-0.21821l-1.80865,-1.84597c-0.28435,-0.29147 -0.28435,-0.76292 0,-1.05598zm-2.48766,2.55474c0.2859,-0.29147 0.74583,-0.29147 1.02863,0l3.35003,3.43073c0.28591,0.29147 0.28591,0.76451 0.00311,1.0528c-0.14295,0.14653 -0.33096,0.22138 -0.51898,0.22138s-0.37291,-0.07326 -0.51276,-0.2182l-3.35003,-3.43073c-0.28591,-0.29147 -0.28591,-0.76451 0,-1.05598zm-2.49233,2.54995c0.2859,-0.29146 0.74583,-0.29146 1.03174,0l1.80243,1.84916c0.2859,0.29147 0.28279,0.76451 -0.00311,1.05598c-0.14295,0.14653 -0.32786,0.2198 -0.51276,0.2198c-0.18801,0 -0.37292,-0.07327 -0.51587,-0.2198l-1.80243,-1.84756c-0.28435,-0.29147 -0.28435,-0.76611 0,-1.05758zm-2.48767,2.55315c0.2859,-0.29147 0.74584,-0.28829 1.03174,0.00318l1.79932,1.84597c0.28435,0.29306 0.28435,0.76451 0,1.05598c-0.14295,0.14653 -0.32941,0.2198 -0.51587,0.2198c-0.1849,0 -0.37291,-0.07327 -0.51586,-0.2198l-1.79933,-1.84916c-0.28435,-0.29306 -0.28435,-0.7645 0,-1.05597zm-2.49077,2.55473c0.28435,-0.29306 0.74428,-0.29306 1.03018,0l3.34693,3.42914c0.2859,0.29307 0.2859,0.76611 0,1.05917c-0.14295,0.14653 -0.32786,0.21979 -0.51276,0.21979c-0.18801,0 -0.37603,-0.07326 -0.51898,-0.21979l-3.34537,-3.43233c-0.28435,-0.29306 -0.28435,-0.76451 0,-1.05598zm-3.09366,12.14136c-0.1414,0.14813 -0.32941,0.22139 -0.51587,0.22139c-0.1849,0 -0.36981,-0.07167 -0.51276,-0.2182l-3.34693,-3.42914c-0.2859,-0.29147 -0.2859,-0.76292 0,-1.05598s0.74428,-0.29306 1.02863,0l3.34693,3.42914c0.28435,0.28988 0.28435,0.76132 0,1.05279zm0.94783,-4.13631c-0.1445,0.14812 -0.33252,0.22139 -0.51742,0.22139c-0.18646,0 -0.37292,-0.07167 -0.51276,-0.21821l-1.80554,-1.84915c-0.2859,-0.29147 -0.2859,-0.76292 0,-1.0512c0.2859,-0.29466 0.74583,-0.29784 1.03174,-0.00478l1.80398,1.85075c0.28435,0.28669 0.28435,0.75973 0,1.0512zm2.48767,-2.55155c-0.14295,0.14653 -0.32786,0.2198 -0.51587,0.2198c-0.18491,0 -0.37136,-0.07327 -0.51432,-0.2198l-1.80087,-1.84756c-0.28591,-0.29307 -0.28591,-0.76451 0,-1.05758s0.74583,-0.28987 1.03018,0.00319l1.80088,1.84916c0.28435,0.29147 0.28435,0.76451 0,1.05279zm15.12955,2.54996l-13.47163,0l13.47163,-13.80895l0,13.80895zm-0.18646,-17.86563c-0.13984,0.14653 -0.32786,0.2198 -0.51276,0.2198c-0.18801,0 -0.37603,-0.07327 -0.51898,-0.2198l-1.80243,-1.84597c-0.2859,-0.29147 -0.2859,-0.76291 0,-1.05598c0.2828,-0.29147 0.74428,-0.29147 1.02863,0l1.80243,1.84597c0.2859,0.29307 0.28746,0.76451 0.00311,1.05598zm4.03372,-0.96838c-0.14295,0.14654 -0.33097,0.21821 -0.51587,0.21821s-0.37292,-0.07167 -0.51276,-0.21821l-3.34693,-3.43073c-0.2859,-0.29147 -0.2859,-0.7661 0,-1.05757s0.74894,-0.28828 1.03174,0.00318l3.34693,3.43074c0.28434,0.29147 0.28124,0.76451 -0.00311,1.05438z" fill="#fff"/>
  <path transform="rotate(180 23.81 23.6634)" stroke="#000" id="svg_17" d="m11.76871,36.00701l-7.95867,8.15635l40,0l0,-40.99999l-32.04133,32.84364zm18.75772,-18.02331c0.28901,-0.29147 0.74584,-0.29147 1.03174,0l1.80243,1.84597c0.2859,0.29147 0.28901,0.76451 0.00311,1.05598c-0.14295,0.14494 -0.33096,0.21821 -0.51587,0.21821c-0.18801,0 -0.37292,-0.07327 -0.51276,-0.21821l-1.80865,-1.84597c-0.28435,-0.29147 -0.28435,-0.76292 0,-1.05598zm-2.48766,2.55474c0.2859,-0.29147 0.74583,-0.29147 1.02863,0l3.35003,3.43073c0.28591,0.29147 0.28591,0.76451 0.00311,1.0528c-0.14295,0.14653 -0.33096,0.22138 -0.51898,0.22138s-0.37291,-0.07326 -0.51276,-0.2182l-3.35003,-3.43073c-0.28591,-0.29147 -0.28591,-0.76451 0,-1.05598zm-2.49233,2.54995c0.2859,-0.29146 0.74583,-0.29146 1.03174,0l1.80243,1.84916c0.2859,0.29147 0.28279,0.76451 -0.00311,1.05598c-0.14295,0.14653 -0.32786,0.2198 -0.51276,0.2198c-0.18801,0 -0.37292,-0.07327 -0.51587,-0.2198l-1.80243,-1.84756c-0.28435,-0.29147 -0.28435,-0.76611 0,-1.05758zm-2.48767,2.55315c0.2859,-0.29147 0.74584,-0.28829 1.03174,0.00318l1.79932,1.84597c0.28435,0.29306 0.28435,0.76451 0,1.05598c-0.14295,0.14653 -0.32941,0.2198 -0.51587,0.2198c-0.1849,0 -0.37291,-0.07327 -0.51586,-0.2198l-1.79933,-1.84916c-0.28435,-0.29306 -0.28435,-0.7645 0,-1.05597zm-2.49077,2.55473c0.28435,-0.29306 0.74428,-0.29306 1.03018,0l3.34693,3.42914c0.2859,0.29307 0.2859,0.76611 0,1.05917c-0.14295,0.14653 -0.32786,0.21979 -0.51276,0.21979c-0.18801,0 -0.37603,-0.07326 -0.51898,-0.21979l-3.34537,-3.43233c-0.28435,-0.29306 -0.28435,-0.76451 0,-1.05598zm-3.09366,12.14136c-0.1414,0.14813 -0.32941,0.22139 -0.51587,0.22139c-0.1849,0 -0.36981,-0.07167 -0.51276,-0.2182l-3.34693,-3.42914c-0.2859,-0.29147 -0.2859,-0.76292 0,-1.05598s0.74428,-0.29306 1.02863,0l3.34693,3.42914c0.28435,0.28988 0.28435,0.76132 0,1.05279zm0.94783,-4.13631c-0.1445,0.14812 -0.33252,0.22139 -0.51742,0.22139c-0.18646,0 -0.37292,-0.07167 -0.51276,-0.21821l-1.80554,-1.84915c-0.2859,-0.29147 -0.2859,-0.76292 0,-1.0512c0.2859,-0.29466 0.74583,-0.29784 1.03174,-0.00478l1.80398,1.85075c0.28435,0.28669 0.28435,0.75973 0,1.0512zm2.48767,-2.55155c-0.14295,0.14653 -0.32786,0.2198 -0.51587,0.2198c-0.18491,0 -0.37136,-0.07327 -0.51432,-0.2198l-1.80087,-1.84756c-0.28591,-0.29307 -0.28591,-0.76451 0,-1.05758s0.74583,-0.28987 1.03018,0.00319l1.80088,1.84916c0.28435,0.29147 0.28435,0.76451 0,1.05279zm15.12955,2.54996l-13.47163,0l13.47163,-13.80895l0,13.80895zm-0.18646,-17.86563c-0.13984,0.14653 -0.32786,0.2198 -0.51276,0.2198c-0.18801,0 -0.37603,-0.07327 -0.51898,-0.2198l-1.80243,-1.84597c-0.2859,-0.29147 -0.2859,-0.76291 0,-1.05598c0.2828,-0.29147 0.74428,-0.29147 1.02863,0l1.80243,1.84597c0.2859,0.29307 0.28746,0.76451 0.00311,1.05598zm4.03372,-0.96838c-0.14295,0.14654 -0.33097,0.21821 -0.51587,0.21821s-0.37292,-0.07167 -0.51276,-0.21821l-3.34693,-3.43073c-0.2859,-0.29147 -0.2859,-0.7661 0,-1.05757s0.74894,-0.28828 1.03174,0.00318l3.34693,3.43074c0.28434,0.29147 0.28124,0.76451 -0.00311,1.05438z" fill="#fff"/>
  <path transform="rotate(-90 200.81 23.6634)" stroke="#000" id="svg_18" d="m188.76871,36.00701l-7.95867,8.15635l40,0l0,-40.99999l-32.04133,32.84364zm18.75772,-18.02331c0.28901,-0.29147 0.74584,-0.29147 1.03174,0l1.80243,1.84597c0.2859,0.29147 0.28901,0.76451 0.00311,1.05598c-0.14295,0.14494 -0.33096,0.21821 -0.51587,0.21821c-0.18801,0 -0.37292,-0.07327 -0.51276,-0.21821l-1.80865,-1.84597c-0.28435,-0.29147 -0.28435,-0.76292 0,-1.05598zm-2.48766,2.55474c0.2859,-0.29147 0.74583,-0.29147 1.02863,0l3.35003,3.43073c0.28591,0.29147 0.28591,0.76451 0.00311,1.0528c-0.14295,0.14653 -0.33096,0.22138 -0.51898,0.22138s-0.37291,-0.07326 -0.51276,-0.2182l-3.35003,-3.43073c-0.28591,-0.29147 -0.28591,-0.76451 0,-1.05598zm-2.49233,2.54995c0.2859,-0.29146 0.74583,-0.29146 1.03174,0l1.80243,1.84916c0.2859,0.29147 0.28279,0.76451 -0.00311,1.05598c-0.14295,0.14653 -0.32786,0.2198 -0.51276,0.2198c-0.18801,0 -0.37292,-0.07327 -0.51587,-0.2198l-1.80243,-1.84756c-0.28435,-0.29147 -0.28435,-0.76611 0,-1.05758zm-2.48767,2.55315c0.2859,-0.29147 0.74584,-0.28829 1.03174,0.00318l1.79932,1.84597c0.28435,0.29306 0.28435,0.76451 0,1.05598c-0.14295,0.14653 -0.32941,0.2198 -0.51587,0.2198c-0.1849,0 -0.37291,-0.07327 -0.51586,-0.2198l-1.79933,-1.84916c-0.28435,-0.29306 -0.28435,-0.7645 0,-1.05597zm-2.49077,2.55473c0.28435,-0.29306 0.74428,-0.29306 1.03018,0l3.34693,3.42914c0.2859,0.29307 0.2859,0.76611 0,1.05917c-0.14295,0.14653 -0.32786,0.21979 -0.51276,0.21979c-0.18801,0 -0.37603,-0.07326 -0.51898,-0.21979l-3.34537,-3.43233c-0.28435,-0.29306 -0.28435,-0.76451 0,-1.05598zm-3.09366,12.14136c-0.1414,0.14813 -0.32941,0.22139 -0.51587,0.22139c-0.1849,0 -0.36981,-0.07167 -0.51276,-0.2182l-3.34693,-3.42914c-0.2859,-0.29147 -0.2859,-0.76292 0,-1.05598s0.74428,-0.29306 1.02863,0l3.34693,3.42914c0.28435,0.28988 0.28435,0.76132 0,1.05279zm0.94783,-4.13631c-0.1445,0.14812 -0.33252,0.22139 -0.51742,0.22139c-0.18646,0 -0.37292,-0.07167 -0.51276,-0.21821l-1.80554,-1.84915c-0.2859,-0.29147 -0.2859,-0.76292 0,-1.0512c0.2859,-0.29466 0.74583,-0.29784 1.03174,-0.00478l1.80398,1.85075c0.28435,0.28669 0.28435,0.75973 0,1.0512zm2.48767,-2.55155c-0.14295,0.14653 -0.32786,0.2198 -0.51587,0.2198c-0.18491,0 -0.37136,-0.07327 -0.51432,-0.2198l-1.80087,-1.84756c-0.28591,-0.29307 -0.28591,-0.76451 0,-1.05758s0.74583,-0.28987 1.03018,0.00319l1.80088,1.84916c0.28435,0.29147 0.28435,0.76451 0,1.05279zm15.12955,2.54996l-13.47163,0l13.47163,-13.80895l0,13.80895zm-0.18646,-17.86563c-0.13984,0.14653 -0.32786,0.2198 -0.51276,0.2198c-0.18801,0 -0.37603,-0.07327 -0.51898,-0.2198l-1.80243,-1.84597c-0.2859,-0.29147 -0.2859,-0.76291 0,-1.05598c0.2828,-0.29147 0.74428,-0.29147 1.02863,0l1.80243,1.84597c0.2859,0.29307 0.28746,0.76451 0.00311,1.05598zm4.03372,-0.96838c-0.14295,0.14654 -0.33097,0.21821 -0.51587,0.21821s-0.37292,-0.07167 -0.51276,-0.21821l-3.34693,-3.43073c-0.2859,-0.29147 -0.2859,-0.7661 0,-1.05757s0.74894,-0.28828 1.03174,0.00318l3.34693,3.43074c0.28434,0.29147 0.28124,0.76451 -0.00311,1.05438z" fill="#fff"/>
  <text fill="#000000" stroke="#000" stroke-width="0" x="52.63281" y="226" id="svg_3" font-size="200" font-family="'Emilys Candy'" text-anchor="start" xml:space="preserve" font-weight="normal" font-style="normal">0</text>
 </g>
</svg>