<svg width="270" height="376" xmlns="http://www.w3.org/2000/svg">
 <title>roomCard_lowCeiling.svg</title>
 <defs>
  <linearGradient id="svg_77" x1="0" y1="1" x2="0" y2="0" spreadMethod="pad">
   <stop stop-color="0" stop-opacity="0" offset="0"/>
   <stop stop-color="#000000" offset="0"/>
   <stop stop-color="#fff" offset="1"/>
  </linearGradient>
 </defs>
 <g>
  <title>Layer 1</title>
  <rect fill="url(#svg_77)" stroke-width="5" x="2.00001" width="266.99999" height="373.00002" id="svg_11" stroke="#000000" y="0"/>
  <path fill="#fff" d="m232.76871,365.00701l-7.95867,8.15636l40,0l0,-40.99999l-32.04133,32.84363zm18.75772,-18.0233c0.28901,-0.29147 0.74583,-0.29147 1.03174,0l1.80243,1.84597c0.2859,0.29147 0.28901,0.76451 0.00311,1.05598c-0.14295,0.14494 -0.33096,0.2182 -0.51587,0.2182c-0.18801,0 -0.37292,-0.07327 -0.51276,-0.2182l-1.80865,-1.84597c-0.28435,-0.29147 -0.28435,-0.76292 0,-1.05598zm-2.48767,2.55473c0.2859,-0.29147 0.74583,-0.29147 1.02863,0l3.35004,3.43073c0.2859,0.29147 0.2859,0.76451 0.00311,1.05279c-0.14295,0.14653 -0.33096,0.22139 -0.51898,0.22139s-0.37292,-0.07327 -0.51276,-0.2182l-3.35004,-3.43073c-0.2859,-0.29147 -0.2859,-0.76451 0,-1.05598zm-2.49233,2.54996c0.2859,-0.29147 0.74583,-0.29147 1.03174,0l1.80243,1.84916c0.2859,0.29147 0.2828,0.76451 -0.00311,1.05598c-0.14295,0.14653 -0.32786,0.2198 -0.51276,0.2198c-0.18801,0 -0.37292,-0.07327 -0.51587,-0.2198l-1.80243,-1.84756c-0.28435,-0.29147 -0.28435,-0.7661 0,-1.05757l0,-0.00001zm-2.48767,2.55314c0.2859,-0.29147 0.74583,-0.28828 1.03174,0.00319l1.79932,1.84597c0.28435,0.29306 0.28435,0.76451 0,1.05598c-0.14295,0.14653 -0.32941,0.2198 -0.51587,0.2198c-0.1849,0 -0.37292,-0.07327 -0.51587,-0.2198l-1.79932,-1.84916c-0.28435,-0.29306 -0.28435,-0.76451 0,-1.05598zm-2.49077,2.55473c0.28435,-0.29306 0.74428,-0.29306 1.03018,0l3.34693,3.42914c0.2859,0.29306 0.2859,0.7661 0,1.05916c-0.14295,0.14653 -0.32786,0.2198 -0.51276,0.2198c-0.18801,0 -0.37602,-0.07327 -0.51898,-0.2198l-3.34538,-3.43233c-0.28435,-0.29306 -0.28435,-0.76451 0,-1.05598l0.00001,0.00001zm-3.09366,12.14136c-0.1414,0.14812 -0.32941,0.22139 -0.51587,0.22139c-0.1849,0 -0.36981,-0.07167 -0.51276,-0.2182l-3.34693,-3.42914c-0.2859,-0.29147 -0.2859,-0.76292 0,-1.05598s0.74428,-0.29306 1.02863,0l3.34693,3.42914c0.28435,0.28988 0.28435,0.76132 0,1.05279zm0.94783,-4.13631c-0.14451,0.14812 -0.33252,0.22139 -0.51742,0.22139c-0.18646,0 -0.37292,-0.07167 -0.51276,-0.2182l-1.80554,-1.84916c-0.2859,-0.29147 -0.2859,-0.76292 0,-1.0512c0.2859,-0.29465 0.74583,-0.29784 1.03174,-0.00478l1.80399,1.85075c0.28435,0.28669 0.28435,0.75973 0,1.0512l-0.00001,0zm2.48767,-2.55155c-0.14295,0.14653 -0.32786,0.2198 -0.51587,0.2198c-0.1849,0 -0.37136,-0.07327 -0.51431,-0.2198l-1.80088,-1.84756c-0.2859,-0.29306 -0.2859,-0.76451 0,-1.05757s0.74583,-0.28988 1.03018,0.00319l1.80088,1.84916c0.28435,0.29147 0.28435,0.76451 0,1.05279l0,-0.00001zm15.12955,2.54996l-13.47162,0l13.47162,-13.80895l0,13.80895zm-0.18646,-17.86562c-0.13984,0.14653 -0.32786,0.2198 -0.51276,0.2198c-0.18801,0 -0.37602,-0.07327 -0.51898,-0.2198l-1.80243,-1.84597c-0.2859,-0.29147 -0.2859,-0.76292 0,-1.05598c0.2828,-0.29147 0.74428,-0.29147 1.02863,0l1.80243,1.84597c0.2859,0.29306 0.28746,0.76451 0.00311,1.05598zm4.03372,-0.96838c-0.14295,0.14653 -0.33096,0.2182 -0.51587,0.2182s-0.37292,-0.07167 -0.51276,-0.2182l-3.34693,-3.43073c-0.2859,-0.29147 -0.2859,-0.7661 0,-1.05757s0.74894,-0.28828 1.03174,0.00319l3.34693,3.43073c0.28435,0.29147 0.28124,0.76451 -0.00311,1.05439l0,-0.00001z" id="svg_15" stroke="#000"/>
  <path fill="#fff" d="m12.76871,364.00701l-7.95867,8.15635l40,0l0,-40.99999l-32.04133,32.84364zm18.75772,-18.02331c0.28901,-0.29147 0.74584,-0.29147 1.03174,0l1.80243,1.84597c0.2859,0.29147 0.28901,0.76451 0.00311,1.05598c-0.14295,0.14494 -0.33096,0.21821 -0.51587,0.21821c-0.18801,0 -0.37292,-0.07327 -0.51276,-0.21821l-1.80865,-1.84597c-0.28435,-0.29147 -0.28435,-0.76292 0,-1.05598zm-2.48766,2.55474c0.2859,-0.29147 0.74583,-0.29147 1.02863,0l3.35003,3.43073c0.28591,0.29147 0.28591,0.76451 0.00311,1.0528c-0.14295,0.14653 -0.33096,0.22138 -0.51898,0.22138s-0.37291,-0.07326 -0.51276,-0.2182l-3.35003,-3.43073c-0.28591,-0.29147 -0.28591,-0.76451 0,-1.05598zm-2.49233,2.54995c0.2859,-0.29146 0.74583,-0.29146 1.03174,0l1.80243,1.84916c0.2859,0.29147 0.28279,0.76451 -0.00311,1.05598c-0.14295,0.14653 -0.32786,0.2198 -0.51276,0.2198c-0.18801,0 -0.37292,-0.07327 -0.51587,-0.2198l-1.80243,-1.84756c-0.28435,-0.29147 -0.28435,-0.76611 0,-1.05758zm-2.48767,2.55315c0.2859,-0.29147 0.74584,-0.28829 1.03174,0.00318l1.79932,1.84597c0.28435,0.29306 0.28435,0.76451 0,1.05598c-0.14295,0.14653 -0.32941,0.2198 -0.51587,0.2198c-0.1849,0 -0.37291,-0.07327 -0.51586,-0.2198l-1.79933,-1.84916c-0.28435,-0.29306 -0.28435,-0.7645 0,-1.05597zm-2.49077,2.55473c0.28435,-0.29306 0.74428,-0.29306 1.03018,0l3.34693,3.42914c0.2859,0.29307 0.2859,0.76611 0,1.05917c-0.14295,0.14653 -0.32786,0.21979 -0.51276,0.21979c-0.18801,0 -0.37603,-0.07326 -0.51898,-0.21979l-3.34537,-3.43233c-0.28435,-0.29306 -0.28435,-0.76451 0,-1.05598zm-3.09366,12.14136c-0.1414,0.14813 -0.32941,0.22139 -0.51587,0.22139c-0.1849,0 -0.36981,-0.07167 -0.51276,-0.2182l-3.34693,-3.42914c-0.2859,-0.29147 -0.2859,-0.76292 0,-1.05598s0.74428,-0.29306 1.02863,0l3.34693,3.42914c0.28435,0.28988 0.28435,0.76132 0,1.05279zm0.94783,-4.13631c-0.1445,0.14812 -0.33252,0.22139 -0.51742,0.22139c-0.18646,0 -0.37292,-0.07167 -0.51276,-0.21821l-1.80554,-1.84915c-0.2859,-0.29147 -0.2859,-0.76292 0,-1.0512c0.2859,-0.29466 0.74583,-0.29784 1.03174,-0.00478l1.80398,1.85075c0.28435,0.28669 0.28435,0.75973 0,1.0512zm2.48767,-2.55155c-0.14295,0.14653 -0.32786,0.2198 -0.51587,0.2198c-0.18491,0 -0.37136,-0.07327 -0.51432,-0.2198l-1.80087,-1.84756c-0.28591,-0.29307 -0.28591,-0.76451 0,-1.05758s0.74583,-0.28987 1.03018,0.00319l1.80088,1.84916c0.28435,0.29147 0.28435,0.76451 0,1.05279zm15.12955,2.54996l-13.47163,0l13.47163,-13.80895l0,13.80895zm-0.18646,-17.86563c-0.13984,0.14653 -0.32786,0.2198 -0.51276,0.2198c-0.18801,0 -0.37603,-0.07327 -0.51898,-0.2198l-1.80243,-1.84597c-0.2859,-0.29147 -0.2859,-0.76291 0,-1.05598c0.2828,-0.29147 0.74428,-0.29147 1.02863,0l1.80243,1.84597c0.2859,0.29307 0.28746,0.76451 0.00311,1.05598zm4.03372,-0.96838c-0.14295,0.14654 -0.33097,0.21821 -0.51587,0.21821s-0.37292,-0.07167 -0.51276,-0.21821l-3.34693,-3.43073c-0.2859,-0.29147 -0.2859,-0.7661 0,-1.05757s0.74894,-0.28828 1.03174,0.00318l3.34693,3.43074c0.28434,0.29147 0.28124,0.76451 -0.00311,1.05438z" id="svg_16" stroke="#000" transform="rotate(90 24.81 351.663)"/>
  <path fill="#fff" d="m11.76871,36.00701l-7.95867,8.15635l40,0l0,-40.99999l-32.04133,32.84364zm18.75772,-18.02331c0.28901,-0.29147 0.74584,-0.29147 1.03174,0l1.80243,1.84597c0.2859,0.29147 0.28901,0.76451 0.00311,1.05598c-0.14295,0.14494 -0.33096,0.21821 -0.51587,0.21821c-0.18801,0 -0.37292,-0.07327 -0.51276,-0.21821l-1.80865,-1.84597c-0.28435,-0.29147 -0.28435,-0.76292 0,-1.05598zm-2.48766,2.55474c0.2859,-0.29147 0.74583,-0.29147 1.02863,0l3.35003,3.43073c0.28591,0.29147 0.28591,0.76451 0.00311,1.0528c-0.14295,0.14653 -0.33096,0.22138 -0.51898,0.22138s-0.37291,-0.07326 -0.51276,-0.2182l-3.35003,-3.43073c-0.28591,-0.29147 -0.28591,-0.76451 0,-1.05598zm-2.49233,2.54995c0.2859,-0.29146 0.74583,-0.29146 1.03174,0l1.80243,1.84916c0.2859,0.29147 0.28279,0.76451 -0.00311,1.05598c-0.14295,0.14653 -0.32786,0.2198 -0.51276,0.2198c-0.18801,0 -0.37292,-0.07327 -0.51587,-0.2198l-1.80243,-1.84756c-0.28435,-0.29147 -0.28435,-0.76611 0,-1.05758zm-2.48767,2.55315c0.2859,-0.29147 0.74584,-0.28829 1.03174,0.00318l1.79932,1.84597c0.28435,0.29306 0.28435,0.76451 0,1.05598c-0.14295,0.14653 -0.32941,0.2198 -0.51587,0.2198c-0.1849,0 -0.37291,-0.07327 -0.51586,-0.2198l-1.79933,-1.84916c-0.28435,-0.29306 -0.28435,-0.7645 0,-1.05597zm-2.49077,2.55473c0.28435,-0.29306 0.74428,-0.29306 1.03018,0l3.34693,3.42914c0.2859,0.29307 0.2859,0.76611 0,1.05917c-0.14295,0.14653 -0.32786,0.21979 -0.51276,0.21979c-0.18801,0 -0.37603,-0.07326 -0.51898,-0.21979l-3.34537,-3.43233c-0.28435,-0.29306 -0.28435,-0.76451 0,-1.05598zm-3.09366,12.14136c-0.1414,0.14813 -0.32941,0.22139 -0.51587,0.22139c-0.1849,0 -0.36981,-0.07167 -0.51276,-0.2182l-3.34693,-3.42914c-0.2859,-0.29147 -0.2859,-0.76292 0,-1.05598s0.74428,-0.29306 1.02863,0l3.34693,3.42914c0.28435,0.28988 0.28435,0.76132 0,1.05279zm0.94783,-4.13631c-0.1445,0.14812 -0.33252,0.22139 -0.51742,0.22139c-0.18646,0 -0.37292,-0.07167 -0.51276,-0.21821l-1.80554,-1.84915c-0.2859,-0.29147 -0.2859,-0.76292 0,-1.0512c0.2859,-0.29466 0.74583,-0.29784 1.03174,-0.00478l1.80398,1.85075c0.28435,0.28669 0.28435,0.75973 0,1.0512zm2.48767,-2.55155c-0.14295,0.14653 -0.32786,0.2198 -0.51587,0.2198c-0.18491,0 -0.37136,-0.07327 -0.51432,-0.2198l-1.80087,-1.84756c-0.28591,-0.29307 -0.28591,-0.76451 0,-1.05758s0.74583,-0.28987 1.03018,0.00319l1.80088,1.84916c0.28435,0.29147 0.28435,0.76451 0,1.05279zm15.12955,2.54996l-13.47163,0l13.47163,-13.80895l0,13.80895zm-0.18646,-17.86563c-0.13984,0.14653 -0.32786,0.2198 -0.51276,0.2198c-0.18801,0 -0.37603,-0.07327 -0.51898,-0.2198l-1.80243,-1.84597c-0.2859,-0.29147 -0.2859,-0.76291 0,-1.05598c0.2828,-0.29147 0.74428,-0.29147 1.02863,0l1.80243,1.84597c0.2859,0.29307 0.28746,0.76451 0.00311,1.05598zm4.03372,-0.96838c-0.14295,0.14654 -0.33097,0.21821 -0.51587,0.21821s-0.37292,-0.07167 -0.51276,-0.21821l-3.34693,-3.43073c-0.2859,-0.29147 -0.2859,-0.7661 0,-1.05757s0.74894,-0.28828 1.03174,0.00318l3.34693,3.43074c0.28434,0.29147 0.28124,0.76451 -0.00311,1.05438z" id="svg_17" stroke="#000" transform="rotate(180 23.81 23.6634)"/>
  <path fill="#fff" d="m232.76871,37.00701l-7.95867,8.15635l40,0l0,-40.99999l-32.04133,32.84364zm18.75772,-18.02331c0.28901,-0.29147 0.74584,-0.29147 1.03174,0l1.80243,1.84597c0.2859,0.29147 0.28901,0.76451 0.00311,1.05598c-0.14295,0.14494 -0.33096,0.21821 -0.51587,0.21821c-0.18801,0 -0.37292,-0.07327 -0.51276,-0.21821l-1.80865,-1.84597c-0.28435,-0.29147 -0.28435,-0.76292 0,-1.05598zm-2.48766,2.55474c0.2859,-0.29147 0.74583,-0.29147 1.02863,0l3.35003,3.43073c0.28591,0.29147 0.28591,0.76451 0.00311,1.0528c-0.14295,0.14653 -0.33096,0.22138 -0.51898,0.22138s-0.37291,-0.07326 -0.51276,-0.2182l-3.35003,-3.43073c-0.28591,-0.29147 -0.28591,-0.76451 0,-1.05598zm-2.49233,2.54995c0.2859,-0.29146 0.74583,-0.29146 1.03174,0l1.80243,1.84916c0.2859,0.29147 0.28279,0.76451 -0.00311,1.05598c-0.14295,0.14653 -0.32786,0.2198 -0.51276,0.2198c-0.18801,0 -0.37292,-0.07327 -0.51587,-0.2198l-1.80243,-1.84756c-0.28435,-0.29147 -0.28435,-0.76611 0,-1.05758zm-2.48767,2.55315c0.2859,-0.29147 0.74584,-0.28829 1.03174,0.00318l1.79932,1.84597c0.28435,0.29306 0.28435,0.76451 0,1.05598c-0.14295,0.14653 -0.32941,0.2198 -0.51587,0.2198c-0.1849,0 -0.37291,-0.07327 -0.51586,-0.2198l-1.79933,-1.84916c-0.28435,-0.29306 -0.28435,-0.7645 0,-1.05597zm-2.49077,2.55473c0.28435,-0.29306 0.74428,-0.29306 1.03018,0l3.34693,3.42914c0.2859,0.29307 0.2859,0.76611 0,1.05917c-0.14295,0.14653 -0.32786,0.21979 -0.51276,0.21979c-0.18801,0 -0.37603,-0.07326 -0.51898,-0.21979l-3.34537,-3.43233c-0.28435,-0.29306 -0.28435,-0.76451 0,-1.05598zm-3.09366,12.14136c-0.1414,0.14813 -0.32941,0.22139 -0.51587,0.22139c-0.1849,0 -0.36981,-0.07167 -0.51276,-0.2182l-3.34693,-3.42914c-0.2859,-0.29147 -0.2859,-0.76292 0,-1.05598s0.74428,-0.29306 1.02863,0l3.34693,3.42914c0.28435,0.28988 0.28435,0.76132 0,1.05279zm0.94783,-4.13631c-0.1445,0.14812 -0.33252,0.22139 -0.51742,0.22139c-0.18646,0 -0.37292,-0.07167 -0.51276,-0.21821l-1.80554,-1.84915c-0.2859,-0.29147 -0.2859,-0.76292 0,-1.0512c0.2859,-0.29466 0.74583,-0.29784 1.03174,-0.00478l1.80398,1.85075c0.28435,0.28669 0.28435,0.75973 0,1.0512zm2.48767,-2.55155c-0.14295,0.14653 -0.32786,0.2198 -0.51587,0.2198c-0.18491,0 -0.37136,-0.07327 -0.51432,-0.2198l-1.80087,-1.84756c-0.28591,-0.29307 -0.28591,-0.76451 0,-1.05758s0.74583,-0.28987 1.03018,0.00319l1.80088,1.84916c0.28435,0.29147 0.28435,0.76451 0,1.05279zm15.12955,2.54996l-13.47163,0l13.47163,-13.80895l0,13.80895zm-0.18646,-17.86563c-0.13984,0.14653 -0.32786,0.2198 -0.51276,0.2198c-0.18801,0 -0.37603,-0.07327 -0.51898,-0.2198l-1.80243,-1.84597c-0.2859,-0.29147 -0.2859,-0.76291 0,-1.05598c0.2828,-0.29147 0.74428,-0.29147 1.02863,0l1.80243,1.84597c0.2859,0.29307 0.28746,0.76451 0.00311,1.05598zm4.03372,-0.96838c-0.14295,0.14654 -0.33097,0.21821 -0.51587,0.21821s-0.37292,-0.07167 -0.51276,-0.21821l-3.34693,-3.43073c-0.2859,-0.29147 -0.2859,-0.7661 0,-1.05757s0.74894,-0.28828 1.03174,0.00318l3.34693,3.43074c0.28434,0.29147 0.28124,0.76451 -0.00311,1.05438z" id="svg_18" stroke="#000" transform="rotate(-90 244.81 24.6634)"/>
  <rect fill="#ffaa56" stroke="#000000" stroke-width="5" x="103.5" y="140.5" width="113" height="144" id="svg_65"/>
  <line fill="none" stroke-width="4" x1="184" y1="214.5" x2="212" y2="295.5" id="svg_13" stroke="#ffffaa"/>
  <line fill="none" stroke-width="5" x1="216.5" y1="282.5" x2="252.5" y2="347.5" id="svg_66" stroke="#000000"/>
  <line fill="none" stroke="#000000" stroke-width="5" x1="103.5" y1="283.5" x2="26.5" y2="359.5" id="svg_67"/>
  <line fill="none" stroke="#000000" stroke-width="5" x1="104.5" y1="140.5" x2="1.5" y2="95.5" id="svg_68"/>
  <line fill="none" stroke-width="5" x1="215.5" y1="140.5" x2="269.5" y2="91.5" id="svg_69" stroke="#000000"/>
  <rect fill="#ffffff" stroke-width="5" x="35.50001" y="29.5" width="202.99999" height="66" id="svg_78" stroke="#000000"/>
  <text xml:space="preserve" text-anchor="start" font-family="'Open Sans'" font-size="30" id="svg_1" y="75.5" x="55.89844" stroke-width="0.5" stroke="#000000" fill="#000000">Low Ceiling</text>
  <line fill="none" stroke-width="4" x1="113" y1="232.5" x2="99" y2="262.5" id="svg_23" stroke="#ffffaa"/>
  <line fill="none" stroke-width="4" x1="148.75111" y1="222.69112" x2="135.1312" y2="312.59109" id="svg_21" stroke="#ffffaa" transform="rotate(1.57427 141.941 267.641)"/>
  <line fill="none" stroke-width="4" x1="129.22999" y1="220.52271" x2="104.65231" y2="291.75952" id="svg_25" stroke="#ffffaa" transform="rotate(1.57427 116.941 256.141)"/>
  <line fill="none" stroke-width="4" x1="138.09395" y1="221.62076" x2="120.78835" y2="302.66147" id="svg_24" stroke="#ffffaa" transform="rotate(1.57427 129.441 262.141)"/>
  <line fill="none" stroke-width="4" x1="123" y1="223.5" x2="101" y2="278.5" id="svg_26" stroke="#ffffaa"/>
  <line fill="none" stroke-width="4" x1="143.87435" y1="221.5803" x2="128.00794" y2="306.70192" id="svg_28" stroke="#ffffaa" transform="rotate(1.57427 135.941 264.141)"/>
  <line fill="none" stroke-width="4" x1="133" y1="223.5" x2="111" y2="295.5" id="svg_27" stroke="#ffffaa"/>
  <line fill="none" stroke-width="4" x1="154" y1="225.5" x2="142" y2="314.5" id="svg_29" stroke="#ffffaa"/>
  <line fill="none" stroke-width="4" x1="164" y1="229.5" x2="165" y2="317.5" id="svg_30" stroke="#ffffaa"/>
  <line fill="none" stroke-width="4" x1="192" y1="223.5" x2="218" y2="287.49999" id="svg_34" stroke="#ffffaa"/>
  <line fill="none" stroke-width="4" x1="203" y1="235.5" x2="223" y2="276.5" id="svg_22" stroke="#ffffaa"/>
  <line fill="none" stroke-width="4" x1="209" y1="237.5" x2="227" y2="263.5" id="svg_35" stroke="#ffffaa"/>
  <line fill="none" stroke-width="4" x1="185" y1="230.5" x2="205" y2="303.5" id="svg_33" stroke="#ffffaa"/>
  <line fill="none" stroke-width="4" x1="171" y1="230.49999" x2="175" y2="316.5" id="svg_19" stroke="#ffffaa"/>
  <line fill="none" stroke-width="4" x1="158" y1="230.5" x2="153" y2="316.5" id="svg_20" stroke="#ffffaa"/>
  <line fill="none" stroke-width="4" x1="182" y1="230.5" x2="196" y2="309.5" id="svg_14" stroke="#ffffaa"/>
  <path fill="#666666" stroke-width="4" d="m104.48506,138.80248l110.99993,0l0,97.7681l-95.4469,-9.521l-15.55309,9.521l0.00006,-97.7681z" id="svg_2" stroke="#000000"/>
  <path fill="#4c4c4c" stroke="#000000" stroke-width="0.5" d="m380.09499,390.54249l1.00001,0l0,1.192l-0.5,0.298l-0.5,-0.298l0,-1.192l-0.00001,0z" id="svg_3"/>
  <line fill="none" stroke-width="4" x1="176" y1="234.5" x2="187" y2="313.5" id="svg_32" stroke="#ffffaa"/>
 </g>
</svg>