<svg width="270" height="376" xmlns="http://www.w3.org/2000/svg">
 <title>roomCard_mud.svg</title>
 <defs>
  <linearGradient id="svg_77" x1="0" y1="1" x2="0" y2="0" spreadMethod="pad">
   <stop stop-color="0" stop-opacity="0" offset="0"/>
   <stop stop-color="#000000" offset="0"/>
   <stop stop-color="#fff" offset="1"/>
  </linearGradient>
 </defs>
 <g>
  <title>Layer 1</title>
  <rect fill="url(#svg_77)" stroke-width="5" x="1.00001" y="2" width="266.99999" height="373.00002" id="svg_11" stroke="#000000"/>
  <rect fill="#ffaa56" stroke="#000000" stroke-width="5" x="104.5" y="139.5" width="113" height="144" id="svg_65"/>
  <path fill="#fff" d="m232.76871,365.00701l-7.95867,8.15636l40,0l0,-40.99999l-32.04133,32.84363zm18.75772,-18.0233c0.28901,-0.29147 0.74583,-0.29147 1.03174,0l1.80243,1.84597c0.2859,0.29147 0.28901,0.76451 0.00311,1.05598c-0.14295,0.14494 -0.33096,0.2182 -0.51587,0.2182c-0.18801,0 -0.37292,-0.07327 -0.51276,-0.2182l-1.80865,-1.84597c-0.28435,-0.29147 -0.28435,-0.76292 0,-1.05598zm-2.48767,2.55473c0.2859,-0.29147 0.74583,-0.29147 1.02863,0l3.35004,3.43073c0.2859,0.29147 0.2859,0.76451 0.00311,1.05279c-0.14295,0.14653 -0.33096,0.22139 -0.51898,0.22139s-0.37292,-0.07327 -0.51276,-0.2182l-3.35004,-3.43073c-0.2859,-0.29147 -0.2859,-0.76451 0,-1.05598zm-2.49233,2.54996c0.2859,-0.29147 0.74583,-0.29147 1.03174,0l1.80243,1.84916c0.2859,0.29147 0.2828,0.76451 -0.00311,1.05598c-0.14295,0.14653 -0.32786,0.2198 -0.51276,0.2198c-0.18801,0 -0.37292,-0.07327 -0.51587,-0.2198l-1.80243,-1.84756c-0.28435,-0.29147 -0.28435,-0.7661 0,-1.05757l0,-0.00001zm-2.48767,2.55314c0.2859,-0.29147 0.74583,-0.28828 1.03174,0.00319l1.79932,1.84597c0.28435,0.29306 0.28435,0.76451 0,1.05598c-0.14295,0.14653 -0.32941,0.2198 -0.51587,0.2198c-0.1849,0 -0.37292,-0.07327 -0.51587,-0.2198l-1.79932,-1.84916c-0.28435,-0.29306 -0.28435,-0.76451 0,-1.05598zm-2.49077,2.55473c0.28435,-0.29306 0.74428,-0.29306 1.03018,0l3.34693,3.42914c0.2859,0.29306 0.2859,0.7661 0,1.05916c-0.14295,0.14653 -0.32786,0.2198 -0.51276,0.2198c-0.18801,0 -0.37602,-0.07327 -0.51898,-0.2198l-3.34538,-3.43233c-0.28435,-0.29306 -0.28435,-0.76451 0,-1.05598l0.00001,0.00001zm-3.09366,12.14136c-0.1414,0.14812 -0.32941,0.22139 -0.51587,0.22139c-0.1849,0 -0.36981,-0.07167 -0.51276,-0.2182l-3.34693,-3.42914c-0.2859,-0.29147 -0.2859,-0.76292 0,-1.05598s0.74428,-0.29306 1.02863,0l3.34693,3.42914c0.28435,0.28988 0.28435,0.76132 0,1.05279zm0.94783,-4.13631c-0.14451,0.14812 -0.33252,0.22139 -0.51742,0.22139c-0.18646,0 -0.37292,-0.07167 -0.51276,-0.2182l-1.80554,-1.84916c-0.2859,-0.29147 -0.2859,-0.76292 0,-1.0512c0.2859,-0.29465 0.74583,-0.29784 1.03174,-0.00478l1.80399,1.85075c0.28435,0.28669 0.28435,0.75973 0,1.0512l-0.00001,0zm2.48767,-2.55155c-0.14295,0.14653 -0.32786,0.2198 -0.51587,0.2198c-0.1849,0 -0.37136,-0.07327 -0.51431,-0.2198l-1.80088,-1.84756c-0.2859,-0.29306 -0.2859,-0.76451 0,-1.05757s0.74583,-0.28988 1.03018,0.00319l1.80088,1.84916c0.28435,0.29147 0.28435,0.76451 0,1.05279l0,-0.00001zm15.12955,2.54996l-13.47162,0l13.47162,-13.80895l0,13.80895zm-0.18646,-17.86562c-0.13984,0.14653 -0.32786,0.2198 -0.51276,0.2198c-0.18801,0 -0.37602,-0.07327 -0.51898,-0.2198l-1.80243,-1.84597c-0.2859,-0.29147 -0.2859,-0.76292 0,-1.05598c0.2828,-0.29147 0.74428,-0.29147 1.02863,0l1.80243,1.84597c0.2859,0.29306 0.28746,0.76451 0.00311,1.05598zm4.03372,-0.96838c-0.14295,0.14653 -0.33096,0.2182 -0.51587,0.2182s-0.37292,-0.07167 -0.51276,-0.2182l-3.34693,-3.43073c-0.2859,-0.29147 -0.2859,-0.7661 0,-1.05757s0.74894,-0.28828 1.03174,0.00319l3.34693,3.43073c0.28435,0.29147 0.28124,0.76451 -0.00311,1.05439l0,-0.00001z" id="svg_15" stroke="#000"/>
  <path fill="#fff" d="m12.76871,364.00701l-7.95867,8.15635l40,0l0,-40.99999l-32.04133,32.84364zm18.75772,-18.02331c0.28901,-0.29147 0.74584,-0.29147 1.03174,0l1.80243,1.84597c0.2859,0.29147 0.28901,0.76451 0.00311,1.05598c-0.14295,0.14494 -0.33096,0.21821 -0.51587,0.21821c-0.18801,0 -0.37292,-0.07327 -0.51276,-0.21821l-1.80865,-1.84597c-0.28435,-0.29147 -0.28435,-0.76292 0,-1.05598zm-2.48766,2.55474c0.2859,-0.29147 0.74583,-0.29147 1.02863,0l3.35003,3.43073c0.28591,0.29147 0.28591,0.76451 0.00311,1.0528c-0.14295,0.14653 -0.33096,0.22138 -0.51898,0.22138s-0.37291,-0.07326 -0.51276,-0.2182l-3.35003,-3.43073c-0.28591,-0.29147 -0.28591,-0.76451 0,-1.05598zm-2.49233,2.54995c0.2859,-0.29146 0.74583,-0.29146 1.03174,0l1.80243,1.84916c0.2859,0.29147 0.28279,0.76451 -0.00311,1.05598c-0.14295,0.14653 -0.32786,0.2198 -0.51276,0.2198c-0.18801,0 -0.37292,-0.07327 -0.51587,-0.2198l-1.80243,-1.84756c-0.28435,-0.29147 -0.28435,-0.76611 0,-1.05758zm-2.48767,2.55315c0.2859,-0.29147 0.74584,-0.28829 1.03174,0.00318l1.79932,1.84597c0.28435,0.29306 0.28435,0.76451 0,1.05598c-0.14295,0.14653 -0.32941,0.2198 -0.51587,0.2198c-0.1849,0 -0.37291,-0.07327 -0.51586,-0.2198l-1.79933,-1.84916c-0.28435,-0.29306 -0.28435,-0.7645 0,-1.05597zm-2.49077,2.55473c0.28435,-0.29306 0.74428,-0.29306 1.03018,0l3.34693,3.42914c0.2859,0.29307 0.2859,0.76611 0,1.05917c-0.14295,0.14653 -0.32786,0.21979 -0.51276,0.21979c-0.18801,0 -0.37603,-0.07326 -0.51898,-0.21979l-3.34537,-3.43233c-0.28435,-0.29306 -0.28435,-0.76451 0,-1.05598zm-3.09366,12.14136c-0.1414,0.14813 -0.32941,0.22139 -0.51587,0.22139c-0.1849,0 -0.36981,-0.07167 -0.51276,-0.2182l-3.34693,-3.42914c-0.2859,-0.29147 -0.2859,-0.76292 0,-1.05598s0.74428,-0.29306 1.02863,0l3.34693,3.42914c0.28435,0.28988 0.28435,0.76132 0,1.05279zm0.94783,-4.13631c-0.1445,0.14812 -0.33252,0.22139 -0.51742,0.22139c-0.18646,0 -0.37292,-0.07167 -0.51276,-0.21821l-1.80554,-1.84915c-0.2859,-0.29147 -0.2859,-0.76292 0,-1.0512c0.2859,-0.29466 0.74583,-0.29784 1.03174,-0.00478l1.80398,1.85075c0.28435,0.28669 0.28435,0.75973 0,1.0512zm2.48767,-2.55155c-0.14295,0.14653 -0.32786,0.2198 -0.51587,0.2198c-0.18491,0 -0.37136,-0.07327 -0.51432,-0.2198l-1.80087,-1.84756c-0.28591,-0.29307 -0.28591,-0.76451 0,-1.05758s0.74583,-0.28987 1.03018,0.00319l1.80088,1.84916c0.28435,0.29147 0.28435,0.76451 0,1.05279zm15.12955,2.54996l-13.47163,0l13.47163,-13.80895l0,13.80895zm-0.18646,-17.86563c-0.13984,0.14653 -0.32786,0.2198 -0.51276,0.2198c-0.18801,0 -0.37603,-0.07327 -0.51898,-0.2198l-1.80243,-1.84597c-0.2859,-0.29147 -0.2859,-0.76291 0,-1.05598c0.2828,-0.29147 0.74428,-0.29147 1.02863,0l1.80243,1.84597c0.2859,0.29307 0.28746,0.76451 0.00311,1.05598zm4.03372,-0.96838c-0.14295,0.14654 -0.33097,0.21821 -0.51587,0.21821s-0.37292,-0.07167 -0.51276,-0.21821l-3.34693,-3.43073c-0.2859,-0.29147 -0.2859,-0.7661 0,-1.05757s0.74894,-0.28828 1.03174,0.00318l3.34693,3.43074c0.28434,0.29147 0.28124,0.76451 -0.00311,1.05438z" id="svg_16" stroke="#000" transform="rotate(90 24.81 351.663)"/>
  <path fill="#fff" d="m11.76871,36.00701l-7.95867,8.15635l40,0l0,-40.99999l-32.04133,32.84364zm18.75772,-18.02331c0.28901,-0.29147 0.74584,-0.29147 1.03174,0l1.80243,1.84597c0.2859,0.29147 0.28901,0.76451 0.00311,1.05598c-0.14295,0.14494 -0.33096,0.21821 -0.51587,0.21821c-0.18801,0 -0.37292,-0.07327 -0.51276,-0.21821l-1.80865,-1.84597c-0.28435,-0.29147 -0.28435,-0.76292 0,-1.05598zm-2.48766,2.55474c0.2859,-0.29147 0.74583,-0.29147 1.02863,0l3.35003,3.43073c0.28591,0.29147 0.28591,0.76451 0.00311,1.0528c-0.14295,0.14653 -0.33096,0.22138 -0.51898,0.22138s-0.37291,-0.07326 -0.51276,-0.2182l-3.35003,-3.43073c-0.28591,-0.29147 -0.28591,-0.76451 0,-1.05598zm-2.49233,2.54995c0.2859,-0.29146 0.74583,-0.29146 1.03174,0l1.80243,1.84916c0.2859,0.29147 0.28279,0.76451 -0.00311,1.05598c-0.14295,0.14653 -0.32786,0.2198 -0.51276,0.2198c-0.18801,0 -0.37292,-0.07327 -0.51587,-0.2198l-1.80243,-1.84756c-0.28435,-0.29147 -0.28435,-0.76611 0,-1.05758zm-2.48767,2.55315c0.2859,-0.29147 0.74584,-0.28829 1.03174,0.00318l1.79932,1.84597c0.28435,0.29306 0.28435,0.76451 0,1.05598c-0.14295,0.14653 -0.32941,0.2198 -0.51587,0.2198c-0.1849,0 -0.37291,-0.07327 -0.51586,-0.2198l-1.79933,-1.84916c-0.28435,-0.29306 -0.28435,-0.7645 0,-1.05597zm-2.49077,2.55473c0.28435,-0.29306 0.74428,-0.29306 1.03018,0l3.34693,3.42914c0.2859,0.29307 0.2859,0.76611 0,1.05917c-0.14295,0.14653 -0.32786,0.21979 -0.51276,0.21979c-0.18801,0 -0.37603,-0.07326 -0.51898,-0.21979l-3.34537,-3.43233c-0.28435,-0.29306 -0.28435,-0.76451 0,-1.05598zm-3.09366,12.14136c-0.1414,0.14813 -0.32941,0.22139 -0.51587,0.22139c-0.1849,0 -0.36981,-0.07167 -0.51276,-0.2182l-3.34693,-3.42914c-0.2859,-0.29147 -0.2859,-0.76292 0,-1.05598s0.74428,-0.29306 1.02863,0l3.34693,3.42914c0.28435,0.28988 0.28435,0.76132 0,1.05279zm0.94783,-4.13631c-0.1445,0.14812 -0.33252,0.22139 -0.51742,0.22139c-0.18646,0 -0.37292,-0.07167 -0.51276,-0.21821l-1.80554,-1.84915c-0.2859,-0.29147 -0.2859,-0.76292 0,-1.0512c0.2859,-0.29466 0.74583,-0.29784 1.03174,-0.00478l1.80398,1.85075c0.28435,0.28669 0.28435,0.75973 0,1.0512zm2.48767,-2.55155c-0.14295,0.14653 -0.32786,0.2198 -0.51587,0.2198c-0.18491,0 -0.37136,-0.07327 -0.51432,-0.2198l-1.80087,-1.84756c-0.28591,-0.29307 -0.28591,-0.76451 0,-1.05758s0.74583,-0.28987 1.03018,0.00319l1.80088,1.84916c0.28435,0.29147 0.28435,0.76451 0,1.05279zm15.12955,2.54996l-13.47163,0l13.47163,-13.80895l0,13.80895zm-0.18646,-17.86563c-0.13984,0.14653 -0.32786,0.2198 -0.51276,0.2198c-0.18801,0 -0.37603,-0.07327 -0.51898,-0.2198l-1.80243,-1.84597c-0.2859,-0.29147 -0.2859,-0.76291 0,-1.05598c0.2828,-0.29147 0.74428,-0.29147 1.02863,0l1.80243,1.84597c0.2859,0.29307 0.28746,0.76451 0.00311,1.05598zm4.03372,-0.96838c-0.14295,0.14654 -0.33097,0.21821 -0.51587,0.21821s-0.37292,-0.07167 -0.51276,-0.21821l-3.34693,-3.43073c-0.2859,-0.29147 -0.2859,-0.7661 0,-1.05757s0.74894,-0.28828 1.03174,0.00318l3.34693,3.43074c0.28434,0.29147 0.28124,0.76451 -0.00311,1.05438z" id="svg_17" stroke="#000" transform="rotate(180 23.81 23.6634)"/>
  <path fill="#fff" d="m232.76871,37.00701l-7.95867,8.15635l40,0l0,-40.99999l-32.04133,32.84364zm18.75772,-18.02331c0.28901,-0.29147 0.74584,-0.29147 1.03174,0l1.80243,1.84597c0.2859,0.29147 0.28901,0.76451 0.00311,1.05598c-0.14295,0.14494 -0.33096,0.21821 -0.51587,0.21821c-0.18801,0 -0.37292,-0.07327 -0.51276,-0.21821l-1.80865,-1.84597c-0.28435,-0.29147 -0.28435,-0.76292 0,-1.05598zm-2.48766,2.55474c0.2859,-0.29147 0.74583,-0.29147 1.02863,0l3.35003,3.43073c0.28591,0.29147 0.28591,0.76451 0.00311,1.0528c-0.14295,0.14653 -0.33096,0.22138 -0.51898,0.22138s-0.37291,-0.07326 -0.51276,-0.2182l-3.35003,-3.43073c-0.28591,-0.29147 -0.28591,-0.76451 0,-1.05598zm-2.49233,2.54995c0.2859,-0.29146 0.74583,-0.29146 1.03174,0l1.80243,1.84916c0.2859,0.29147 0.28279,0.76451 -0.00311,1.05598c-0.14295,0.14653 -0.32786,0.2198 -0.51276,0.2198c-0.18801,0 -0.37292,-0.07327 -0.51587,-0.2198l-1.80243,-1.84756c-0.28435,-0.29147 -0.28435,-0.76611 0,-1.05758zm-2.48767,2.55315c0.2859,-0.29147 0.74584,-0.28829 1.03174,0.00318l1.79932,1.84597c0.28435,0.29306 0.28435,0.76451 0,1.05598c-0.14295,0.14653 -0.32941,0.2198 -0.51587,0.2198c-0.1849,0 -0.37291,-0.07327 -0.51586,-0.2198l-1.79933,-1.84916c-0.28435,-0.29306 -0.28435,-0.7645 0,-1.05597zm-2.49077,2.55473c0.28435,-0.29306 0.74428,-0.29306 1.03018,0l3.34693,3.42914c0.2859,0.29307 0.2859,0.76611 0,1.05917c-0.14295,0.14653 -0.32786,0.21979 -0.51276,0.21979c-0.18801,0 -0.37603,-0.07326 -0.51898,-0.21979l-3.34537,-3.43233c-0.28435,-0.29306 -0.28435,-0.76451 0,-1.05598zm-3.09366,12.14136c-0.1414,0.14813 -0.32941,0.22139 -0.51587,0.22139c-0.1849,0 -0.36981,-0.07167 -0.51276,-0.2182l-3.34693,-3.42914c-0.2859,-0.29147 -0.2859,-0.76292 0,-1.05598s0.74428,-0.29306 1.02863,0l3.34693,3.42914c0.28435,0.28988 0.28435,0.76132 0,1.05279zm0.94783,-4.13631c-0.1445,0.14812 -0.33252,0.22139 -0.51742,0.22139c-0.18646,0 -0.37292,-0.07167 -0.51276,-0.21821l-1.80554,-1.84915c-0.2859,-0.29147 -0.2859,-0.76292 0,-1.0512c0.2859,-0.29466 0.74583,-0.29784 1.03174,-0.00478l1.80398,1.85075c0.28435,0.28669 0.28435,0.75973 0,1.0512zm2.48767,-2.55155c-0.14295,0.14653 -0.32786,0.2198 -0.51587,0.2198c-0.18491,0 -0.37136,-0.07327 -0.51432,-0.2198l-1.80087,-1.84756c-0.28591,-0.29307 -0.28591,-0.76451 0,-1.05758s0.74583,-0.28987 1.03018,0.00319l1.80088,1.84916c0.28435,0.29147 0.28435,0.76451 0,1.05279zm15.12955,2.54996l-13.47163,0l13.47163,-13.80895l0,13.80895zm-0.18646,-17.86563c-0.13984,0.14653 -0.32786,0.2198 -0.51276,0.2198c-0.18801,0 -0.37603,-0.07327 -0.51898,-0.2198l-1.80243,-1.84597c-0.2859,-0.29147 -0.2859,-0.76291 0,-1.05598c0.2828,-0.29147 0.74428,-0.29147 1.02863,0l1.80243,1.84597c0.2859,0.29307 0.28746,0.76451 0.00311,1.05598zm4.03372,-0.96838c-0.14295,0.14654 -0.33097,0.21821 -0.51587,0.21821s-0.37292,-0.07167 -0.51276,-0.21821l-3.34693,-3.43073c-0.2859,-0.29147 -0.2859,-0.7661 0,-1.05757s0.74894,-0.28828 1.03174,0.00318l3.34693,3.43074c0.28434,0.29147 0.28124,0.76451 -0.00311,1.05438z" id="svg_18" stroke="#000" transform="rotate(-90 244.81 24.6634)"/>
  <line fill="none" stroke-width="5" x1="216.5" y1="282.5" x2="252.5" y2="347.5" id="svg_66" stroke="#000000"/>
  <line fill="none" stroke="#000000" stroke-width="5" x1="103.5" y1="283.5" x2="26.5" y2="359.5" id="svg_67"/>
  <line fill="none" stroke="#000000" stroke-width="5" x1="104.5" y1="140.5" x2="1.5" y2="95.5" id="svg_68"/>
  <line fill="none" stroke-width="5" x1="215.5" y1="140.5" x2="269.5" y2="91.5" id="svg_69" stroke="#000000"/>
  <rect fill="#ffffff" stroke-width="5" x="35.50001" y="29.5" width="202.99999" height="66" id="svg_78" stroke="#000000"/>
  <text xml:space="preserve" text-anchor="start" font-family="'Open Sans'" font-size="30" id="svg_1" y="75.5" x="103.05469" stroke-width="0.5" stroke="#000000" fill="#000000">Mud</text>
  <path fill="#7f3f00" stroke-width="4" d="m106.77545,232.79441l109.43194,0l0,33.79574c-64.39454,6.95356 -103.04175,32.64478 -109.43194,5.56044l0,-39.35617l0,-0.00001z" id="svg_7" stroke="#000000" transform="rotate(179.734 161.491 258.543)"/>
  <path fill="#7f3f00" stroke-width="4" d="m215.74616,235.04681l-111.54247,0l0,24.02564c55.77123,0 104.54785,57.38118 111.54247,3.95295l0,-27.97859z" id="svg_9" stroke="#000000" transform="rotate(179.734 159.975 260.417)"/>
 </g>
</svg>