<svg width="270" height="376" xmlns="http://www.w3.org/2000/svg">
 <title>roomCard_sand.svg</title>
 <defs>
  <linearGradient id="svg_77" x1="0" y1="1" x2="0" y2="0" spreadMethod="pad">
   <stop stop-color="0" stop-opacity="0" offset="0"/>
   <stop stop-color="#000000" offset="0"/>
   <stop stop-color="#fff" offset="1"/>
  </linearGradient>
 </defs>
 <g>
  <title>Layer 1</title>
  <rect fill="url(#svg_77)" stroke-width="5" x="1.00001" y="2" width="266.99999" height="373.00002" id="svg_11" stroke="#000000"/>
  <rect fill="#ffaa56" stroke="#000000" stroke-width="5" x="104.5" y="139.5" width="113" height="144" id="svg_65"/>
  <path fill="#fff" d="m232.76871,365.00701l-7.95867,8.15636l40,0l0,-40.99999l-32.04133,32.84363zm18.75772,-18.0233c0.28901,-0.29147 0.74583,-0.29147 1.03174,0l1.80243,1.84597c0.2859,0.29147 0.28901,0.76451 0.00311,1.05598c-0.14295,0.14494 -0.33096,0.2182 -0.51587,0.2182c-0.18801,0 -0.37292,-0.07327 -0.51276,-0.2182l-1.80865,-1.84597c-0.28435,-0.29147 -0.28435,-0.76292 0,-1.05598zm-2.48767,2.55473c0.2859,-0.29147 0.74583,-0.29147 1.02863,0l3.35004,3.43073c0.2859,0.29147 0.2859,0.76451 0.00311,1.05279c-0.14295,0.14653 -0.33096,0.22139 -0.51898,0.22139s-0.37292,-0.07327 -0.51276,-0.2182l-3.35004,-3.43073c-0.2859,-0.29147 -0.2859,-0.76451 0,-1.05598zm-2.49233,2.54996c0.2859,-0.29147 0.74583,-0.29147 1.03174,0l1.80243,1.84916c0.2859,0.29147 0.2828,0.76451 -0.00311,1.05598c-0.14295,0.14653 -0.32786,0.2198 -0.51276,0.2198c-0.18801,0 -0.37292,-0.07327 -0.51587,-0.2198l-1.80243,-1.84756c-0.28435,-0.29147 -0.28435,-0.7661 0,-1.05757l0,-0.00001zm-2.48767,2.55314c0.2859,-0.29147 0.74583,-0.28828 1.03174,0.00319l1.79932,1.84597c0.28435,0.29306 0.28435,0.76451 0,1.05598c-0.14295,0.14653 -0.32941,0.2198 -0.51587,0.2198c-0.1849,0 -0.37292,-0.07327 -0.51587,-0.2198l-1.79932,-1.84916c-0.28435,-0.29306 -0.28435,-0.76451 0,-1.05598zm-2.49077,2.55473c0.28435,-0.29306 0.74428,-0.29306 1.03018,0l3.34693,3.42914c0.2859,0.29306 0.2859,0.7661 0,1.05916c-0.14295,0.14653 -0.32786,0.2198 -0.51276,0.2198c-0.18801,0 -0.37602,-0.07327 -0.51898,-0.2198l-3.34538,-3.43233c-0.28435,-0.29306 -0.28435,-0.76451 0,-1.05598l0.00001,0.00001zm-3.09366,12.14136c-0.1414,0.14812 -0.32941,0.22139 -0.51587,0.22139c-0.1849,0 -0.36981,-0.07167 -0.51276,-0.2182l-3.34693,-3.42914c-0.2859,-0.29147 -0.2859,-0.76292 0,-1.05598s0.74428,-0.29306 1.02863,0l3.34693,3.42914c0.28435,0.28988 0.28435,0.76132 0,1.05279zm0.94783,-4.13631c-0.14451,0.14812 -0.33252,0.22139 -0.51742,0.22139c-0.18646,0 -0.37292,-0.07167 -0.51276,-0.2182l-1.80554,-1.84916c-0.2859,-0.29147 -0.2859,-0.76292 0,-1.0512c0.2859,-0.29465 0.74583,-0.29784 1.03174,-0.00478l1.80399,1.85075c0.28435,0.28669 0.28435,0.75973 0,1.0512l-0.00001,0zm2.48767,-2.55155c-0.14295,0.14653 -0.32786,0.2198 -0.51587,0.2198c-0.1849,0 -0.37136,-0.07327 -0.51431,-0.2198l-1.80088,-1.84756c-0.2859,-0.29306 -0.2859,-0.76451 0,-1.05757s0.74583,-0.28988 1.03018,0.00319l1.80088,1.84916c0.28435,0.29147 0.28435,0.76451 0,1.05279l0,-0.00001zm15.12955,2.54996l-13.47162,0l13.47162,-13.80895l0,13.80895zm-0.18646,-17.86562c-0.13984,0.14653 -0.32786,0.2198 -0.51276,0.2198c-0.18801,0 -0.37602,-0.07327 -0.51898,-0.2198l-1.80243,-1.84597c-0.2859,-0.29147 -0.2859,-0.76292 0,-1.05598c0.2828,-0.29147 0.74428,-0.29147 1.02863,0l1.80243,1.84597c0.2859,0.29306 0.28746,0.76451 0.00311,1.05598zm4.03372,-0.96838c-0.14295,0.14653 -0.33096,0.2182 -0.51587,0.2182s-0.37292,-0.07167 -0.51276,-0.2182l-3.34693,-3.43073c-0.2859,-0.29147 -0.2859,-0.7661 0,-1.05757s0.74894,-0.28828 1.03174,0.00319l3.34693,3.43073c0.28435,0.29147 0.28124,0.76451 -0.00311,1.05439l0,-0.00001z" id="svg_15" stroke="#000"/>
  <path fill="#fff" d="m12.76871,364.00701l-7.95867,8.15635l40,0l0,-40.99999l-32.04133,32.84364zm18.75772,-18.02331c0.28901,-0.29147 0.74584,-0.29147 1.03174,0l1.80243,1.84597c0.2859,0.29147 0.28901,0.76451 0.00311,1.05598c-0.14295,0.14494 -0.33096,0.21821 -0.51587,0.21821c-0.18801,0 -0.37292,-0.07327 -0.51276,-0.21821l-1.80865,-1.84597c-0.28435,-0.29147 -0.28435,-0.76292 0,-1.05598zm-2.48766,2.55474c0.2859,-0.29147 0.74583,-0.29147 1.02863,0l3.35003,3.43073c0.28591,0.29147 0.28591,0.76451 0.00311,1.0528c-0.14295,0.14653 -0.33096,0.22138 -0.51898,0.22138s-0.37291,-0.07326 -0.51276,-0.2182l-3.35003,-3.43073c-0.28591,-0.29147 -0.28591,-0.76451 0,-1.05598zm-2.49233,2.54995c0.2859,-0.29146 0.74583,-0.29146 1.03174,0l1.80243,1.84916c0.2859,0.29147 0.28279,0.76451 -0.00311,1.05598c-0.14295,0.14653 -0.32786,0.2198 -0.51276,0.2198c-0.18801,0 -0.37292,-0.07327 -0.51587,-0.2198l-1.80243,-1.84756c-0.28435,-0.29147 -0.28435,-0.76611 0,-1.05758zm-2.48767,2.55315c0.2859,-0.29147 0.74584,-0.28829 1.03174,0.00318l1.79932,1.84597c0.28435,0.29306 0.28435,0.76451 0,1.05598c-0.14295,0.14653 -0.32941,0.2198 -0.51587,0.2198c-0.1849,0 -0.37291,-0.07327 -0.51586,-0.2198l-1.79933,-1.84916c-0.28435,-0.29306 -0.28435,-0.7645 0,-1.05597zm-2.49077,2.55473c0.28435,-0.29306 0.74428,-0.29306 1.03018,0l3.34693,3.42914c0.2859,0.29307 0.2859,0.76611 0,1.05917c-0.14295,0.14653 -0.32786,0.21979 -0.51276,0.21979c-0.18801,0 -0.37603,-0.07326 -0.51898,-0.21979l-3.34537,-3.43233c-0.28435,-0.29306 -0.28435,-0.76451 0,-1.05598zm-3.09366,12.14136c-0.1414,0.14813 -0.32941,0.22139 -0.51587,0.22139c-0.1849,0 -0.36981,-0.07167 -0.51276,-0.2182l-3.34693,-3.42914c-0.2859,-0.29147 -0.2859,-0.76292 0,-1.05598s0.74428,-0.29306 1.02863,0l3.34693,3.42914c0.28435,0.28988 0.28435,0.76132 0,1.05279zm0.94783,-4.13631c-0.1445,0.14812 -0.33252,0.22139 -0.51742,0.22139c-0.18646,0 -0.37292,-0.07167 -0.51276,-0.21821l-1.80554,-1.84915c-0.2859,-0.29147 -0.2859,-0.76292 0,-1.0512c0.2859,-0.29466 0.74583,-0.29784 1.03174,-0.00478l1.80398,1.85075c0.28435,0.28669 0.28435,0.75973 0,1.0512zm2.48767,-2.55155c-0.14295,0.14653 -0.32786,0.2198 -0.51587,0.2198c-0.18491,0 -0.37136,-0.07327 -0.51432,-0.2198l-1.80087,-1.84756c-0.28591,-0.29307 -0.28591,-0.76451 0,-1.05758s0.74583,-0.28987 1.03018,0.00319l1.80088,1.84916c0.28435,0.29147 0.28435,0.76451 0,1.05279zm15.12955,2.54996l-13.47163,0l13.47163,-13.80895l0,13.80895zm-0.18646,-17.86563c-0.13984,0.14653 -0.32786,0.2198 -0.51276,0.2198c-0.18801,0 -0.37603,-0.07327 -0.51898,-0.2198l-1.80243,-1.84597c-0.2859,-0.29147 -0.2859,-0.76291 0,-1.05598c0.2828,-0.29147 0.74428,-0.29147 1.02863,0l1.80243,1.84597c0.2859,0.29307 0.28746,0.76451 0.00311,1.05598zm4.03372,-0.96838c-0.14295,0.14654 -0.33097,0.21821 -0.51587,0.21821s-0.37292,-0.07167 -0.51276,-0.21821l-3.34693,-3.43073c-0.2859,-0.29147 -0.2859,-0.7661 0,-1.05757s0.74894,-0.28828 1.03174,0.00318l3.34693,3.43074c0.28434,0.29147 0.28124,0.76451 -0.00311,1.05438z" id="svg_16" stroke="#000" transform="rotate(90 24.81 351.663)"/>
  <path fill="#fff" d="m11.76871,36.00701l-7.95867,8.15635l40,0l0,-40.99999l-32.04133,32.84364zm18.75772,-18.02331c0.28901,-0.29147 0.74584,-0.29147 1.03174,0l1.80243,1.84597c0.2859,0.29147 0.28901,0.76451 0.00311,1.05598c-0.14295,0.14494 -0.33096,0.21821 -0.51587,0.21821c-0.18801,0 -0.37292,-0.07327 -0.51276,-0.21821l-1.80865,-1.84597c-0.28435,-0.29147 -0.28435,-0.76292 0,-1.05598zm-2.48766,2.55474c0.2859,-0.29147 0.74583,-0.29147 1.02863,0l3.35003,3.43073c0.28591,0.29147 0.28591,0.76451 0.00311,1.0528c-0.14295,0.14653 -0.33096,0.22138 -0.51898,0.22138s-0.37291,-0.07326 -0.51276,-0.2182l-3.35003,-3.43073c-0.28591,-0.29147 -0.28591,-0.76451 0,-1.05598zm-2.49233,2.54995c0.2859,-0.29146 0.74583,-0.29146 1.03174,0l1.80243,1.84916c0.2859,0.29147 0.28279,0.76451 -0.00311,1.05598c-0.14295,0.14653 -0.32786,0.2198 -0.51276,0.2198c-0.18801,0 -0.37292,-0.07327 -0.51587,-0.2198l-1.80243,-1.84756c-0.28435,-0.29147 -0.28435,-0.76611 0,-1.05758zm-2.48767,2.55315c0.2859,-0.29147 0.74584,-0.28829 1.03174,0.00318l1.79932,1.84597c0.28435,0.29306 0.28435,0.76451 0,1.05598c-0.14295,0.14653 -0.32941,0.2198 -0.51587,0.2198c-0.1849,0 -0.37291,-0.07327 -0.51586,-0.2198l-1.79933,-1.84916c-0.28435,-0.29306 -0.28435,-0.7645 0,-1.05597zm-2.49077,2.55473c0.28435,-0.29306 0.74428,-0.29306 1.03018,0l3.34693,3.42914c0.2859,0.29307 0.2859,0.76611 0,1.05917c-0.14295,0.14653 -0.32786,0.21979 -0.51276,0.21979c-0.18801,0 -0.37603,-0.07326 -0.51898,-0.21979l-3.34537,-3.43233c-0.28435,-0.29306 -0.28435,-0.76451 0,-1.05598zm-3.09366,12.14136c-0.1414,0.14813 -0.32941,0.22139 -0.51587,0.22139c-0.1849,0 -0.36981,-0.07167 -0.51276,-0.2182l-3.34693,-3.42914c-0.2859,-0.29147 -0.2859,-0.76292 0,-1.05598s0.74428,-0.29306 1.02863,0l3.34693,3.42914c0.28435,0.28988 0.28435,0.76132 0,1.05279zm0.94783,-4.13631c-0.1445,0.14812 -0.33252,0.22139 -0.51742,0.22139c-0.18646,0 -0.37292,-0.07167 -0.51276,-0.21821l-1.80554,-1.84915c-0.2859,-0.29147 -0.2859,-0.76292 0,-1.0512c0.2859,-0.29466 0.74583,-0.29784 1.03174,-0.00478l1.80398,1.85075c0.28435,0.28669 0.28435,0.75973 0,1.0512zm2.48767,-2.55155c-0.14295,0.14653 -0.32786,0.2198 -0.51587,0.2198c-0.18491,0 -0.37136,-0.07327 -0.51432,-0.2198l-1.80087,-1.84756c-0.28591,-0.29307 -0.28591,-0.76451 0,-1.05758s0.74583,-0.28987 1.03018,0.00319l1.80088,1.84916c0.28435,0.29147 0.28435,0.76451 0,1.05279zm15.12955,2.54996l-13.47163,0l13.47163,-13.80895l0,13.80895zm-0.18646,-17.86563c-0.13984,0.14653 -0.32786,0.2198 -0.51276,0.2198c-0.18801,0 -0.37603,-0.07327 -0.51898,-0.2198l-1.80243,-1.84597c-0.2859,-0.29147 -0.2859,-0.76291 0,-1.05598c0.2828,-0.29147 0.74428,-0.29147 1.02863,0l1.80243,1.84597c0.2859,0.29307 0.28746,0.76451 0.00311,1.05598zm4.03372,-0.96838c-0.14295,0.14654 -0.33097,0.21821 -0.51587,0.21821s-0.37292,-0.07167 -0.51276,-0.21821l-3.34693,-3.43073c-0.2859,-0.29147 -0.2859,-0.7661 0,-1.05757s0.74894,-0.28828 1.03174,0.00318l3.34693,3.43074c0.28434,0.29147 0.28124,0.76451 -0.00311,1.05438z" id="svg_17" stroke="#000" transform="rotate(180 23.81 23.6634)"/>
  <path fill="#fff" d="m232.76871,37.00701l-7.95867,8.15635l40,0l0,-40.99999l-32.04133,32.84364zm18.75772,-18.02331c0.28901,-0.29147 0.74584,-0.29147 1.03174,0l1.80243,1.84597c0.2859,0.29147 0.28901,0.76451 0.00311,1.05598c-0.14295,0.14494 -0.33096,0.21821 -0.51587,0.21821c-0.18801,0 -0.37292,-0.07327 -0.51276,-0.21821l-1.80865,-1.84597c-0.28435,-0.29147 -0.28435,-0.76292 0,-1.05598zm-2.48766,2.55474c0.2859,-0.29147 0.74583,-0.29147 1.02863,0l3.35003,3.43073c0.28591,0.29147 0.28591,0.76451 0.00311,1.0528c-0.14295,0.14653 -0.33096,0.22138 -0.51898,0.22138s-0.37291,-0.07326 -0.51276,-0.2182l-3.35003,-3.43073c-0.28591,-0.29147 -0.28591,-0.76451 0,-1.05598zm-2.49233,2.54995c0.2859,-0.29146 0.74583,-0.29146 1.03174,0l1.80243,1.84916c0.2859,0.29147 0.28279,0.76451 -0.00311,1.05598c-0.14295,0.14653 -0.32786,0.2198 -0.51276,0.2198c-0.18801,0 -0.37292,-0.07327 -0.51587,-0.2198l-1.80243,-1.84756c-0.28435,-0.29147 -0.28435,-0.76611 0,-1.05758zm-2.48767,2.55315c0.2859,-0.29147 0.74584,-0.28829 1.03174,0.00318l1.79932,1.84597c0.28435,0.29306 0.28435,0.76451 0,1.05598c-0.14295,0.14653 -0.32941,0.2198 -0.51587,0.2198c-0.1849,0 -0.37291,-0.07327 -0.51586,-0.2198l-1.79933,-1.84916c-0.28435,-0.29306 -0.28435,-0.7645 0,-1.05597zm-2.49077,2.55473c0.28435,-0.29306 0.74428,-0.29306 1.03018,0l3.34693,3.42914c0.2859,0.29307 0.2859,0.76611 0,1.05917c-0.14295,0.14653 -0.32786,0.21979 -0.51276,0.21979c-0.18801,0 -0.37603,-0.07326 -0.51898,-0.21979l-3.34537,-3.43233c-0.28435,-0.29306 -0.28435,-0.76451 0,-1.05598zm-3.09366,12.14136c-0.1414,0.14813 -0.32941,0.22139 -0.51587,0.22139c-0.1849,0 -0.36981,-0.07167 -0.51276,-0.2182l-3.34693,-3.42914c-0.2859,-0.29147 -0.2859,-0.76292 0,-1.05598s0.74428,-0.29306 1.02863,0l3.34693,3.42914c0.28435,0.28988 0.28435,0.76132 0,1.05279zm0.94783,-4.13631c-0.1445,0.14812 -0.33252,0.22139 -0.51742,0.22139c-0.18646,0 -0.37292,-0.07167 -0.51276,-0.21821l-1.80554,-1.84915c-0.2859,-0.29147 -0.2859,-0.76292 0,-1.0512c0.2859,-0.29466 0.74583,-0.29784 1.03174,-0.00478l1.80398,1.85075c0.28435,0.28669 0.28435,0.75973 0,1.0512zm2.48767,-2.55155c-0.14295,0.14653 -0.32786,0.2198 -0.51587,0.2198c-0.18491,0 -0.37136,-0.07327 -0.51432,-0.2198l-1.80087,-1.84756c-0.28591,-0.29307 -0.28591,-0.76451 0,-1.05758s0.74583,-0.28987 1.03018,0.00319l1.80088,1.84916c0.28435,0.29147 0.28435,0.76451 0,1.05279zm15.12955,2.54996l-13.47163,0l13.47163,-13.80895l0,13.80895zm-0.18646,-17.86563c-0.13984,0.14653 -0.32786,0.2198 -0.51276,0.2198c-0.18801,0 -0.37603,-0.07327 -0.51898,-0.2198l-1.80243,-1.84597c-0.2859,-0.29147 -0.2859,-0.76291 0,-1.05598c0.2828,-0.29147 0.74428,-0.29147 1.02863,0l1.80243,1.84597c0.2859,0.29307 0.28746,0.76451 0.00311,1.05598zm4.03372,-0.96838c-0.14295,0.14654 -0.33097,0.21821 -0.51587,0.21821s-0.37292,-0.07167 -0.51276,-0.21821l-3.34693,-3.43073c-0.2859,-0.29147 -0.2859,-0.7661 0,-1.05757s0.74894,-0.28828 1.03174,0.00318l3.34693,3.43074c0.28434,0.29147 0.28124,0.76451 -0.00311,1.05438z" id="svg_18" stroke="#000" transform="rotate(-90 244.81 24.6634)"/>
  <line fill="none" stroke-width="5" x1="216.5" y1="282.5" x2="252.5" y2="347.5" id="svg_66" stroke="#000000"/>
  <line fill="none" stroke="#000000" stroke-width="5" x1="103.5" y1="283.5" x2="26.5" y2="359.5" id="svg_67"/>
  <line fill="none" stroke="#000000" stroke-width="5" x1="104.5" y1="140.5" x2="1.5" y2="95.5" id="svg_68"/>
  <line fill="none" stroke-width="5" x1="215.5" y1="140.5" x2="269.5" y2="91.5" id="svg_69" stroke="#000000"/>
  <rect fill="#ffffff" stroke-width="5" x="35.50001" y="29.5" width="202.99999" height="66" id="svg_78" stroke="#000000"/>
  <text xml:space="preserve" text-anchor="start" font-family="'Open Sans'" font-size="30" id="svg_1" y="74.5" x="100.02344" stroke-width="0.5" stroke="#000000" fill="#000000">Sand</text>
  <path fill="#bfbf00" stroke-width="4" d="m107.24478,232.6396l109.43194,0l0,33.79574c-64.39454,6.95356 -116.11125,47.58426 -109.2973,-23.43925l-0.13464,-10.35648l0,-0.00001z" id="svg_7" stroke="#000000" transform="rotate(179.734 161.726 258.465)"/>
  <path fill="#ffff00" stroke-width="4" d="m216.80303,226.649l-111.53318,-1.10556l-1.0882,23.77711c104.80784,-2.46196 107.06963,88.66761 112.63067,-8.31096l-0.00929,-14.3606l0,0.00001z" id="svg_9" stroke="#000000" transform="rotate(179.734 160.497 255.664)"/>
  <polyline fill="none" stroke="#000000" stroke-width="4" points="130,270.5 130,268.5 " id="svg_10" stroke-linecap="round"/>
  <polyline fill="none" stroke="#000000" stroke-width="4" points="155,268.5 157,268.5 " id="svg_23" stroke-linecap="round"/>
  <path fill="none" stroke="#000000" stroke-width="4" id="svg_24" d="m199,241.5c2,2 2,4 2,2l-2,-2l0,-2"/>
  <polyline fill="none" stroke="#000000" stroke-width="4" points="156,260.5 158,260.5 " id="svg_25" stroke-linecap="round"/>
  <polyline fill="none" stroke="#000000" stroke-width="4" points="167,261.5 169,261.5 " id="svg_26" stroke-linecap="round"/>
  <polyline fill="none" stroke="#000000" stroke-width="4" points="180,267.5 182,267.5 " id="svg_27" stroke-linecap="round"/>
  <polyline fill="none" stroke="#000000" stroke-width="4" points="187,275.5 189,275.5 " id="svg_28" stroke-linecap="round"/>
  <polyline fill="none" stroke="#000000" stroke-width="4" points="193,268.5 195,268.5 " id="svg_29" stroke-linecap="round"/>
  <polyline fill="none" stroke="#000000" stroke-width="4" points="123,274.5 123,272.5 " id="svg_30" stroke-linecap="round"/>
  <polyline fill="none" stroke="#000000" stroke-width="4" points="119,266.5 119,264.5 " id="svg_31" stroke-linecap="round"/>
  <polyline fill="none" stroke="#000000" stroke-width="4" points="116,258.5 116,256.5 " id="svg_32" stroke-linecap="round"/>
  <polyline fill="none" stroke="#000000" stroke-width="4" points="122,252.5 122,250.5 " id="svg_33" stroke-linecap="round"/>
  <polyline fill="none" stroke="#000000" stroke-width="4" points="119,243.5 119,241.5 " id="svg_34" stroke-linecap="round"/>
  <polyline fill="none" stroke="#000000" stroke-width="4" points="117,237.5 117,235.5 " id="svg_35" stroke-linecap="round"/>
  <polyline fill="none" stroke="#000000" stroke-width="4" points="114,249.5 114,247.5 " id="svg_36" stroke-linecap="round"/>
  <polyline fill="none" stroke="#000000" stroke-width="4" points="114,273.5 114,271.5 " id="svg_37" stroke-linecap="round"/>
  <polyline fill="none" stroke="#000000" stroke-width="4" points="125,262.5 125,260.5 " id="svg_38" stroke-linecap="round"/>
  <polyline fill="none" stroke="#000000" stroke-width="4" points="133,253.5 133,251.5 " id="svg_39" stroke-linecap="round"/>
  <polyline fill="none" stroke="#000000" stroke-width="4" points="138,263.5 138,261.5 " id="svg_40" stroke-linecap="round"/>
  <polyline fill="none" stroke="#000000" stroke-width="4" points="138,274.5 138,272.5 " id="svg_41" stroke-linecap="round"/>
  <polyline fill="none" stroke="#000000" stroke-width="4" points="146,274.5 146,272.5 " id="svg_42" stroke-linecap="round"/>
  <polyline fill="none" stroke="#000000" stroke-width="4" points="154,277.5 154,275.5 " id="svg_43" stroke-linecap="round"/>
  <polyline fill="none" stroke="#000000" stroke-width="4" points="160,276.5 160,274.5 " id="svg_44" stroke-linecap="round"/>
  <polyline fill="none" stroke="#000000" stroke-width="4" points="166,270.5 166,268.5 " id="svg_45" stroke-linecap="round"/>
  <polyline fill="none" stroke="#000000" stroke-width="4" points="172,276.5 172,274.5 " id="svg_46" stroke-linecap="round"/>
  <polyline fill="none" stroke="#000000" stroke-width="4" points="179,277.5 179,275.5 " id="svg_47" stroke-linecap="round"/>
  <polyline fill="none" stroke="#000000" stroke-width="4" points="200,276.5 200,274.5 " id="svg_49" stroke-linecap="round"/>
  <polyline fill="none" stroke="#000000" stroke-width="4" points="205,270.5 205,268.5 " id="svg_50" stroke-linecap="round"/>
  <polyline fill="none" stroke="#000000" stroke-width="4" points="147,263.5 147,261.5 " id="svg_51" stroke-linecap="round"/>
  <polyline fill="none" stroke="#000000" stroke-width="4" points="143,252.5 143,250.5 " id="svg_52" stroke-linecap="round"/>
  <polyline fill="none" stroke="#000000" stroke-width="4" points="128,242.5 128,240.5 " id="svg_53" stroke-linecap="round"/>
  <polyline fill="none" stroke="#000000" stroke-width="4" points="164,244.5 164,242.5 " id="svg_54" stroke-linecap="round"/>
  <polyline fill="none" stroke="#000000" stroke-width="4" points="172,250.5 172,248.5 " id="svg_55" stroke-linecap="round"/>
  <polyline fill="none" stroke="#000000" stroke-width="4" points="182,251.5 182,249.5 " id="svg_56" stroke-linecap="round"/>
  <polyline fill="none" stroke="#000000" stroke-width="4" points="192,253.5 192,251.5 " id="svg_57" stroke-linecap="round"/>
  <polyline fill="none" stroke="#000000" stroke-width="4" points="193,242.5 193,240.5 " id="svg_58" stroke-linecap="round"/>
  <polyline fill="none" stroke="#000000" stroke-width="4" points="183,241.5 183,239.5 " id="svg_59" stroke-linecap="round"/>
  <polyline fill="none" stroke="#000000" stroke-width="4" points="175,243.5 175,241.5 " id="svg_60" stroke-linecap="round"/>
  <polyline fill="none" stroke="#000000" stroke-width="4" points="187,246.5 187,244.5 " id="svg_61" stroke-linecap="round"/>
  <polyline fill="none" stroke="#000000" stroke-width="4" points="201,253.5 201,251.5 " id="svg_62" stroke-linecap="round"/>
  <polyline fill="none" stroke="#000000" stroke-width="4" points="208,251.5 208,249.5 " id="svg_63" stroke-linecap="round"/>
  <polyline fill="none" stroke="#000000" stroke-width="4" points="208,251.5 208,249.5 " id="svg_64" stroke-linecap="round"/>
 </g>
</svg>