<svg width="270" height="376" xmlns="http://www.w3.org/2000/svg">
 <title>roomCard_deadend.svg</title>
 <defs>
  <linearGradient spreadMethod="pad" y2="0" x2="0" y1="1" x1="0" id="svg_77">
   <stop offset="0" stop-opacity="0" stop-color="0"/>
   <stop offset="0" stop-color="#000000"/>
   <stop offset="1" stop-color="#fff"/>
  </linearGradient>
 </defs>
 <g>
  <title>Layer 1</title>
  <rect fill="#fff" stroke="#000" x="236" y="395.5" width="1" height="0" id="svg_6"/>
  <path id="svg_8" d="m346.76362,177.42812l-7.95867,8.3553l40,0l0,-42.00001l-32.04134,33.64471l0.00001,0zm18.75772,-18.46291c0.28901,-0.29858 0.74583,-0.29858 1.03174,0l1.80243,1.891c0.2859,0.29858 0.28901,0.78316 0.00311,1.08173c-0.14295,0.14847 -0.33096,0.22353 -0.51587,0.22353c-0.18801,0 -0.37292,-0.07505 -0.51276,-0.22353l-1.80865,-1.891c-0.28435,-0.29858 -0.28435,-0.78152 0,-1.08173zm-2.48767,2.61705c0.2859,-0.29858 0.74583,-0.29858 1.02863,0l3.35004,3.51441c0.2859,0.29858 0.2859,0.78316 0.00311,1.07847c-0.14295,0.1501 -0.33096,0.22679 -0.51898,0.22679s-0.37292,-0.07505 -0.51276,-0.22353l-3.35004,-3.51441c-0.2859,-0.29858 -0.2859,-0.78316 0,-1.08173zm-2.49233,2.61215c0.2859,-0.29858 0.74583,-0.29858 1.03174,0l1.80243,1.89426c0.2859,0.29858 0.2828,0.78316 -0.00311,1.08173c-0.14295,0.1501 -0.32786,0.22516 -0.51276,0.22516c-0.18801,0 -0.37292,-0.07505 -0.51587,-0.22516l-1.80243,-1.89263c-0.28435,-0.29858 -0.28435,-0.78479 0,-1.08337l0,0.00001zm-2.48767,2.61542c0.2859,-0.29858 0.74583,-0.29532 1.03174,0.00326l1.79932,1.891c0.28435,0.30021 0.28435,0.78316 0,1.08173c-0.14295,0.1501 -0.32941,0.22516 -0.51587,0.22516c-0.1849,0 -0.37292,-0.07505 -0.51587,-0.22516l-1.79932,-1.89426c-0.28435,-0.30021 -0.28435,-0.78316 0,-1.08173zm-2.49077,2.61705c0.28435,-0.30021 0.74428,-0.30021 1.03018,0l3.34693,3.51278c0.2859,0.30021 0.2859,0.78479 0,1.085c-0.14295,0.1501 -0.32786,0.22516 -0.51276,0.22516c-0.18801,0 -0.37602,-0.07505 -0.51898,-0.22516l-3.34538,-3.51604c-0.28435,-0.30021 -0.28435,-0.78316 0,-1.08173l0.00001,-0.00001zm-3.09366,12.4375c-0.1414,0.15174 -0.32941,0.22679 -0.51587,0.22679c-0.1849,0 -0.36981,-0.07342 -0.51276,-0.22353l-3.34693,-3.51278c-0.2859,-0.29858 -0.2859,-0.78152 0,-1.08173s0.74428,-0.30021 1.02863,0l3.34693,3.51278c0.28435,0.29695 0.28435,0.77989 0,1.07847zm0.94783,-4.2372c-0.14451,0.15174 -0.33252,0.22679 -0.51742,0.22679c-0.18646,0 -0.37292,-0.07342 -0.51276,-0.22353l-1.80554,-1.89426c-0.2859,-0.29858 -0.2859,-0.78152 0,-1.07684c0.2859,-0.30184 0.74583,-0.3051 1.03174,-0.00489l1.80399,1.89589c0.28435,0.29368 0.28435,0.77826 0,1.07684l-0.00001,0zm2.48767,-2.61378c-0.14295,0.1501 -0.32786,0.22516 -0.51587,0.22516c-0.1849,0 -0.37136,-0.07505 -0.51431,-0.22516l-1.80088,-1.89263c-0.2859,-0.30021 -0.2859,-0.78316 0,-1.08337s0.74583,-0.29695 1.03018,0.00326l1.80088,1.89426c0.28435,0.29858 0.28435,0.78316 0,1.07847l0,0.00001zm15.12955,2.61215l-13.47162,0l13.47162,-14.14576l0,14.14576zm-0.18646,-18.30138c-0.13984,0.1501 -0.32786,0.22516 -0.51276,0.22516c-0.18801,0 -0.37602,-0.07505 -0.51898,-0.22516l-1.80243,-1.891c-0.2859,-0.29858 -0.2859,-0.78152 0,-1.08173c0.2828,-0.29858 0.74428,-0.29858 1.02863,0l1.80243,1.891c0.2859,0.30021 0.28746,0.78316 0.00311,1.08173zm4.03372,-0.992c-0.14295,0.1501 -0.33096,0.22353 -0.51587,0.22353s-0.37292,-0.07342 -0.51276,-0.22353l-3.34693,-3.51441c-0.2859,-0.29858 -0.2859,-0.78479 0,-1.08337s0.74894,-0.29532 1.03174,0.00326l3.34693,3.51441c0.28435,0.29858 0.28124,0.78316 -0.00311,1.0801l0,0.00001z" stroke-width="3" stroke="#000" fill="#fff"/>
  <path id="svg_9" d="m313.13194,-99.36713l-13.1318,16.71059l66.00001,0l0,-83.99999l-52.8682,67.2894l-0.00001,0zm30.95024,-36.9258c0.47687,-0.59716 1.23063,-0.59716 1.70237,0l2.97401,3.78199c0.47174,0.59716 0.47687,1.56631 0.00513,2.16347c-0.23587,0.29695 -0.54609,0.44705 -0.85118,0.44705c-0.31022,0 -0.61531,-0.1501 -0.84606,-0.44705l-2.98427,-3.78199c-0.46918,-0.59716 -0.46918,-1.56305 0,-2.16347zm-4.10465,5.23409c0.47174,-0.59716 1.23063,-0.59716 1.69724,0l5.52756,7.02882c0.47174,0.59716 0.47174,1.56631 0.00513,2.15694c-0.23587,0.30021 -0.54609,0.45358 -0.85631,0.45358s-0.61531,-0.1501 -0.84606,-0.44705l-5.52756,-7.02882c-0.47174,-0.59716 -0.47174,-1.56631 0,-2.16347zm-4.11234,5.2243c0.47174,-0.59716 1.23063,-0.59716 1.70237,0l2.97401,3.78852c0.47174,0.59716 0.46661,1.56631 -0.00513,2.16347c-0.23587,0.30021 -0.54096,0.45031 -0.84606,0.45031c-0.31022,0 -0.61531,-0.1501 -0.85118,-0.45031l-2.97401,-3.78525c-0.46918,-0.59716 -0.46918,-1.56957 0,-2.16673l0,-0.00001zm-4.10465,5.23083c0.47174,-0.59716 1.23063,-0.59063 1.70237,0.00653l2.96889,3.78199c0.46918,0.60042 0.46918,1.56631 0,2.16347c-0.23587,0.30021 -0.54353,0.45031 -0.85118,0.45031c-0.30509,0 -0.61531,-0.1501 -0.85118,-0.45031l-2.96889,-3.78852c-0.46918,-0.60042 -0.46918,-1.56631 0,-2.16347l-0.00001,0zm-4.10978,5.23409c0.46918,-0.60042 1.22806,-0.60042 1.6998,0l5.52243,7.02556c0.47174,0.60042 0.47174,1.56957 0,2.16999c-0.23587,0.30021 -0.54096,0.45031 -0.84606,0.45031c-0.31022,0 -0.62044,-0.1501 -0.85631,-0.45031l-5.51987,-7.03209c-0.46918,-0.60042 -0.46918,-1.56631 0,-2.16347l0.00001,0.00001zm-5.10453,24.87499c-0.23331,0.30347 -0.54353,0.45358 -0.85118,0.45358c-0.30509,0 -0.61019,-0.14684 -0.84606,-0.44705l-5.52243,-7.02556c-0.47174,-0.59716 -0.47174,-1.56305 0,-2.16347s1.22806,-0.60042 1.69724,0l5.52243,7.02556c0.46918,0.59389 0.46918,1.55979 0,2.15694zm1.56392,-8.4744c-0.23843,0.30347 -0.54865,0.45358 -0.85375,0.45358c-0.30766,0 -0.61531,-0.14684 -0.84606,-0.44705l-2.97914,-3.78852c-0.47174,-0.59716 -0.47174,-1.56305 0,-2.15368c0.47174,-0.60368 1.23063,-0.61021 1.70237,-0.00979l2.97658,3.79178c0.46918,0.58737 0.46918,1.55652 0,2.15368zm4.10465,-5.22757c-0.23587,0.30021 -0.54096,0.45031 -0.85118,0.45031c-0.30509,0 -0.61275,-0.1501 -0.84862,-0.45031l-2.97145,-3.78525c-0.47174,-0.60042 -0.47174,-1.56631 0,-2.16673s1.23063,-0.59389 1.6998,0.00653l2.97145,3.78852c0.46918,0.59716 0.46918,1.56631 0,2.15694l0,-0.00001zm24.96376,5.2243l-22.22818,0l22.22818,-28.2915l0,28.2915zm-0.30766,-36.60275c-0.23074,0.30021 -0.54096,0.45031 -0.84606,0.45031c-0.31022,0 -0.62044,-0.1501 -0.85631,-0.45031l-2.97401,-3.78199c-0.47174,-0.59716 -0.47174,-1.56305 0,-2.16347c0.46661,-0.59716 1.22806,-0.59716 1.69724,0l2.97401,3.78199c0.47174,0.60042 0.4743,1.56631 0.00513,2.16347zm6.65564,-1.98399c-0.23587,0.30021 -0.54609,0.44705 -0.85118,0.44705s-0.61531,-0.14684 -0.84606,-0.44705l-5.52243,-7.02882c-0.47174,-0.59716 -0.47174,-1.56957 0,-2.16673s1.23575,-0.59063 1.70237,0.00653l5.52243,7.02882c0.46918,0.59716 0.46405,1.56631 -0.00513,2.1602z" stroke-width="3" stroke="#000" fill="#fff"/>
  <rect stroke="#000000" id="svg_11" height="373.00002" width="266.99999" y="2" x="1.00001" stroke-width="5" fill="url(#svg_77)"/>
  <path id="svg_13" d="m-137.601,175.72648l-0.19898,0.02561l1.00006,0l0,-0.12871l-0.80108,0.10311l0,-0.00001zm0.46897,-0.05658c0.00723,-0.00092 0.01865,-0.00092 0.02579,0l0.04506,0.0058c0.00715,0.00092 0.00723,0.0024 0.00008,0.00332c-0.00357,0.00046 -0.00827,0.00069 -0.0129,0.00069c-0.0047,0 -0.00932,-0.00023 -0.01282,-0.00069l-0.04522,-0.0058c-0.00711,-0.00092 -0.00711,-0.0024 0,-0.00332l0.00001,0zm-0.0622,0.00802c0.00715,-0.00092 0.01865,-0.00092 0.02572,0l0.08376,0.01077c0.00715,0.00092 0.00715,0.0024 0.00008,0.00331c-0.00357,0.00046 -0.00827,0.0007 -0.01298,0.0007s-0.00932,-0.00023 -0.01282,-0.00069l-0.08376,-0.01077c-0.00715,-0.00092 -0.00715,-0.0024 0,-0.00332zm-0.06231,0.00801c0.00715,-0.00092 0.01865,-0.00092 0.02579,0l0.04506,0.00581c0.00715,0.00092 0.00707,0.0024 -0.00008,0.00332c-0.00357,0.00046 -0.0082,0.00069 -0.01282,0.00069c-0.0047,0 -0.00932,-0.00023 -0.0129,-0.00069l-0.04506,-0.0058c-0.00711,-0.00092 -0.00711,-0.00241 0,-0.00332l0.00001,-0.00001zm-0.0622,0.00802c0.00715,-0.00092 0.01865,-0.00091 0.02579,0.00001l0.04499,0.0058c0.00711,0.00092 0.00711,0.0024 0,0.00332c-0.00357,0.00046 -0.00824,0.00069 -0.0129,0.00069c-0.00462,0 -0.00932,-0.00023 -0.0129,-0.00069l-0.04499,-0.00581c-0.00711,-0.00092 -0.00711,-0.0024 0,-0.00332l0.00001,0zm-0.06227,0.00802c0.00711,-0.00092 0.01861,-0.00092 0.02576,0l0.08368,0.01077c0.00715,0.00092 0.00715,0.00241 0,0.00333c-0.00357,0.00046 -0.0082,0.00069 -0.01282,0.00069c-0.0047,0 -0.0094,-0.00023 -0.01298,-0.00069l-0.08364,-0.01078c-0.00711,-0.00092 -0.00711,-0.0024 0,-0.00332zm-0.07735,0.03812c-0.00354,0.00047 -0.00824,0.0007 -0.0129,0.0007c-0.00462,0 -0.00925,-0.00023 -0.01282,-0.00069l-0.08368,-0.01077c-0.00715,-0.00092 -0.00715,-0.0024 0,-0.00332s0.01861,-0.00092 0.02572,0l0.08368,0.01077c0.00711,0.00091 0.00711,0.00239 0,0.00331zm0.0237,-0.01299c-0.00361,0.00047 -0.00831,0.0007 -0.01294,0.0007c-0.00466,0 -0.00932,-0.00023 -0.01282,-0.00069l-0.04514,-0.00581c-0.00715,-0.00092 -0.00715,-0.0024 0,-0.0033c0.00715,-0.00093 0.01865,-0.00094 0.02579,-0.00002l0.0451,0.00581c0.00711,0.0009 0.00711,0.00239 0,0.0033l0.00001,0.00001zm0.0622,-0.00801c-0.00357,0.00046 -0.0082,0.00069 -0.0129,0.00069c-0.00462,0 -0.00928,-0.00023 -0.01286,-0.00069l-0.04502,-0.0058c-0.00715,-0.00092 -0.00715,-0.0024 0,-0.00332s0.01865,-0.00091 0.02576,0.00001l0.04502,0.00581c0.00711,0.00092 0.00711,0.0024 0,0.00331l0,-0.00001zm0.37826,0.00801l-0.33681,0l0.33681,-0.04335l0,0.04335zm-0.00466,-0.05609c-0.0035,0.00046 -0.0082,0.00069 -0.01282,0.00069c-0.0047,0 -0.0094,-0.00023 -0.01298,-0.00069l-0.04506,-0.0058c-0.00715,-0.00092 -0.00715,-0.0024 0,-0.00332c0.00707,-0.00092 0.01861,-0.00092 0.02572,0l0.04506,0.0058c0.00715,0.00092 0.00719,0.0024 0.00008,0.00332zm0.10085,-0.00304c-0.00357,0.00046 -0.00827,0.00069 -0.0129,0.00069s-0.00932,-0.00023 -0.01282,-0.00069l-0.08368,-0.01077c-0.00715,-0.00092 -0.00715,-0.00241 0,-0.00332s0.01872,-0.00091 0.02579,0.00001l0.08368,0.01077c0.00711,0.00092 0.00703,0.0024 -0.00008,0.00331l0.00001,0z" stroke="#000" fill="#fff"/>
  <path id="svg_14" d="m-114.32121,106.00794l-19.49874,32.62544l98.00001,0l0,-164.00001l-78.50127,131.37457zm45.95642,-72.09324c0.70808,-1.16588 1.82729,-1.16588 2.52776,0l4.41596,7.38389c0.70046,1.16588 0.70808,3.05804 0.00761,4.22391c-0.35023,0.57975 -0.81086,0.87281 -1.26388,0.87281c-0.46063,0 -0.91365,-0.29306 -1.25626,-0.87281l-4.43119,-7.38389c-0.69666,-1.16588 -0.69666,-3.05167 0,-4.22391zm-6.09478,10.21894c0.70046,-1.16588 1.82729,-1.16588 2.52014,0l8.20759,13.72294c0.70046,1.16588 0.70046,3.05804 0.00761,4.21117c-0.35023,0.58612 -0.81086,0.88556 -1.27149,0.88556s-0.91365,-0.29306 -1.25626,-0.87281l-8.20759,-13.72294c-0.70046,-1.16588 -0.70046,-3.05804 0,-4.22391l0,-0.00001zm-6.1062,10.19983c0.70046,-1.16588 1.82729,-1.16588 2.52776,0l4.41596,7.39663c0.70046,1.16588 0.69285,3.05804 -0.00761,4.22391c-0.35023,0.58612 -0.80325,0.87919 -1.25626,0.87919c-0.46063,0 -0.91365,-0.29306 -1.26388,-0.87919l-4.41596,-7.39026c-0.69666,-1.16588 -0.69666,-3.06441 0,-4.23029l-0.00001,0.00001zm-6.09478,10.21257c0.70046,-1.16588 1.82729,-1.15314 2.52776,0.01274l4.40834,7.38389c0.69666,1.17225 0.69666,3.05804 0,4.22391c-0.35023,0.58612 -0.80705,0.87919 -1.26388,0.87919c-0.45302,0 -0.91365,-0.29306 -1.26388,-0.87919l-4.40834,-7.39663c-0.69666,-1.17225 -0.69666,-3.05804 0,-4.22391zm-6.1024,10.21894c0.69666,-1.17225 1.82349,-1.17225 2.52395,0l8.19998,13.71657c0.70046,1.17225 0.70046,3.06441 0,4.23666c-0.35023,0.58612 -0.80325,0.87919 -1.25626,0.87919c-0.46063,0 -0.92126,-0.29306 -1.27149,-0.87919l-8.19617,-13.72931c-0.69666,-1.17225 -0.69666,-3.05804 0,-4.22391l-0.00001,-0.00001zm-7.57946,48.56546c-0.34642,0.59249 -0.80705,0.88556 -1.26388,0.88556c-0.45302,0 -0.90603,-0.28669 -1.25626,-0.87281l-8.19998,-13.71657c-0.70046,-1.16588 -0.70046,-3.05167 0,-4.22391s1.82349,-1.17225 2.52014,0l8.19998,13.71657c0.69666,1.15951 0.69666,3.0453 0,4.21117l0,-0.00001zm2.32218,-16.54526c-0.35404,0.59249 -0.81467,0.88556 -1.26768,0.88556c-0.45682,0 -0.91365,-0.28669 -1.25626,-0.87281l-4.42357,-7.39663c-0.70046,-1.16588 -0.70046,-3.05167 0,-4.2048c0.70046,-1.17862 1.82729,-1.19136 2.52776,-0.01911l4.41977,7.403c0.69666,1.14676 0.69666,3.03892 0,4.2048l-0.00002,-0.00001zm6.09478,-10.2062c-0.35023,0.58612 -0.80325,0.87919 -1.26388,0.87919c-0.45302,0 -0.90984,-0.29306 -1.26007,-0.87919l-4.41215,-7.39026c-0.70046,-1.17225 -0.70046,-3.05804 0,-4.23029s1.82729,-1.15951 2.52395,0.01274l4.41215,7.39663c0.69666,1.16588 0.69666,3.05804 0,4.21117l0,0.00001zm37.0674,10.19983l-33.00548,0l33.00548,-55.2358l0,55.2358zm-0.45682,-71.46252c-0.34262,0.58612 -0.80325,0.87919 -1.25626,0.87919c-0.46063,0 -0.92126,-0.29306 -1.27149,-0.87919l-4.41596,-7.38389c-0.70046,-1.16588 -0.70046,-3.05167 0,-4.22391c0.69285,-1.16588 1.82349,-1.16588 2.52014,0l4.41596,7.38389c0.70046,1.17225 0.70427,3.05804 0.00761,4.22391zm9.88261,-3.87351c-0.35023,0.58612 -0.81086,0.87281 -1.26388,0.87281s-0.91365,-0.28669 -1.25626,-0.87281l-8.19998,-13.72294c-0.70046,-1.16588 -0.70046,-3.06441 0,-4.23029s1.83491,-1.15314 2.52776,0.01274l8.19998,13.72294c0.69666,1.16588 0.68904,3.05804 -0.00761,4.21754l-0.00001,0.00001z" stroke="#000" fill="#fff"/>
  <path stroke="#000" id="svg_15" d="m232.76871,365.00701l-7.95867,8.15636l40,0l0,-40.99999l-32.04133,32.84363zm18.75772,-18.0233c0.28901,-0.29147 0.74583,-0.29147 1.03174,0l1.80243,1.84597c0.2859,0.29147 0.28901,0.76451 0.00311,1.05598c-0.14295,0.14494 -0.33096,0.2182 -0.51587,0.2182c-0.18801,0 -0.37292,-0.07327 -0.51276,-0.2182l-1.80865,-1.84597c-0.28435,-0.29147 -0.28435,-0.76292 0,-1.05598zm-2.48767,2.55473c0.2859,-0.29147 0.74583,-0.29147 1.02863,0l3.35004,3.43073c0.2859,0.29147 0.2859,0.76451 0.00311,1.05279c-0.14295,0.14653 -0.33096,0.22139 -0.51898,0.22139s-0.37292,-0.07327 -0.51276,-0.2182l-3.35004,-3.43073c-0.2859,-0.29147 -0.2859,-0.76451 0,-1.05598zm-2.49233,2.54996c0.2859,-0.29147 0.74583,-0.29147 1.03174,0l1.80243,1.84916c0.2859,0.29147 0.2828,0.76451 -0.00311,1.05598c-0.14295,0.14653 -0.32786,0.2198 -0.51276,0.2198c-0.18801,0 -0.37292,-0.07327 -0.51587,-0.2198l-1.80243,-1.84756c-0.28435,-0.29147 -0.28435,-0.7661 0,-1.05757l0,-0.00001zm-2.48767,2.55314c0.2859,-0.29147 0.74583,-0.28828 1.03174,0.00319l1.79932,1.84597c0.28435,0.29306 0.28435,0.76451 0,1.05598c-0.14295,0.14653 -0.32941,0.2198 -0.51587,0.2198c-0.1849,0 -0.37292,-0.07327 -0.51587,-0.2198l-1.79932,-1.84916c-0.28435,-0.29306 -0.28435,-0.76451 0,-1.05598zm-2.49077,2.55473c0.28435,-0.29306 0.74428,-0.29306 1.03018,0l3.34693,3.42914c0.2859,0.29306 0.2859,0.7661 0,1.05916c-0.14295,0.14653 -0.32786,0.2198 -0.51276,0.2198c-0.18801,0 -0.37602,-0.07327 -0.51898,-0.2198l-3.34538,-3.43233c-0.28435,-0.29306 -0.28435,-0.76451 0,-1.05598l0.00001,0.00001zm-3.09366,12.14136c-0.1414,0.14812 -0.32941,0.22139 -0.51587,0.22139c-0.1849,0 -0.36981,-0.07167 -0.51276,-0.2182l-3.34693,-3.42914c-0.2859,-0.29147 -0.2859,-0.76292 0,-1.05598s0.74428,-0.29306 1.02863,0l3.34693,3.42914c0.28435,0.28988 0.28435,0.76132 0,1.05279zm0.94783,-4.13631c-0.14451,0.14812 -0.33252,0.22139 -0.51742,0.22139c-0.18646,0 -0.37292,-0.07167 -0.51276,-0.2182l-1.80554,-1.84916c-0.2859,-0.29147 -0.2859,-0.76292 0,-1.0512c0.2859,-0.29465 0.74583,-0.29784 1.03174,-0.00478l1.80399,1.85075c0.28435,0.28669 0.28435,0.75973 0,1.0512l-0.00001,0zm2.48767,-2.55155c-0.14295,0.14653 -0.32786,0.2198 -0.51587,0.2198c-0.1849,0 -0.37136,-0.07327 -0.51431,-0.2198l-1.80088,-1.84756c-0.2859,-0.29306 -0.2859,-0.76451 0,-1.05757s0.74583,-0.28988 1.03018,0.00319l1.80088,1.84916c0.28435,0.29147 0.28435,0.76451 0,1.05279l0,-0.00001zm15.12955,2.54996l-13.47162,0l13.47162,-13.80895l0,13.80895zm-0.18646,-17.86562c-0.13984,0.14653 -0.32786,0.2198 -0.51276,0.2198c-0.18801,0 -0.37602,-0.07327 -0.51898,-0.2198l-1.80243,-1.84597c-0.2859,-0.29147 -0.2859,-0.76292 0,-1.05598c0.2828,-0.29147 0.74428,-0.29147 1.02863,0l1.80243,1.84597c0.2859,0.29306 0.28746,0.76451 0.00311,1.05598zm4.03372,-0.96838c-0.14295,0.14653 -0.33096,0.2182 -0.51587,0.2182s-0.37292,-0.07167 -0.51276,-0.2182l-3.34693,-3.43073c-0.2859,-0.29147 -0.2859,-0.7661 0,-1.05757s0.74894,-0.28828 1.03174,0.00319l3.34693,3.43073c0.28435,0.29147 0.28124,0.76451 -0.00311,1.05439l0,-0.00001z" fill="#fff"/>
  <path transform="rotate(90 24.81 351.663)" stroke="#000" id="svg_16" d="m12.76871,364.00701l-7.95867,8.15635l40,0l0,-40.99999l-32.04133,32.84364zm18.75772,-18.02331c0.28901,-0.29147 0.74584,-0.29147 1.03174,0l1.80243,1.84597c0.2859,0.29147 0.28901,0.76451 0.00311,1.05598c-0.14295,0.14494 -0.33096,0.21821 -0.51587,0.21821c-0.18801,0 -0.37292,-0.07327 -0.51276,-0.21821l-1.80865,-1.84597c-0.28435,-0.29147 -0.28435,-0.76292 0,-1.05598zm-2.48766,2.55474c0.2859,-0.29147 0.74583,-0.29147 1.02863,0l3.35003,3.43073c0.28591,0.29147 0.28591,0.76451 0.00311,1.0528c-0.14295,0.14653 -0.33096,0.22138 -0.51898,0.22138s-0.37291,-0.07326 -0.51276,-0.2182l-3.35003,-3.43073c-0.28591,-0.29147 -0.28591,-0.76451 0,-1.05598zm-2.49233,2.54995c0.2859,-0.29146 0.74583,-0.29146 1.03174,0l1.80243,1.84916c0.2859,0.29147 0.28279,0.76451 -0.00311,1.05598c-0.14295,0.14653 -0.32786,0.2198 -0.51276,0.2198c-0.18801,0 -0.37292,-0.07327 -0.51587,-0.2198l-1.80243,-1.84756c-0.28435,-0.29147 -0.28435,-0.76611 0,-1.05758zm-2.48767,2.55315c0.2859,-0.29147 0.74584,-0.28829 1.03174,0.00318l1.79932,1.84597c0.28435,0.29306 0.28435,0.76451 0,1.05598c-0.14295,0.14653 -0.32941,0.2198 -0.51587,0.2198c-0.1849,0 -0.37291,-0.07327 -0.51586,-0.2198l-1.79933,-1.84916c-0.28435,-0.29306 -0.28435,-0.7645 0,-1.05597zm-2.49077,2.55473c0.28435,-0.29306 0.74428,-0.29306 1.03018,0l3.34693,3.42914c0.2859,0.29307 0.2859,0.76611 0,1.05917c-0.14295,0.14653 -0.32786,0.21979 -0.51276,0.21979c-0.18801,0 -0.37603,-0.07326 -0.51898,-0.21979l-3.34537,-3.43233c-0.28435,-0.29306 -0.28435,-0.76451 0,-1.05598zm-3.09366,12.14136c-0.1414,0.14813 -0.32941,0.22139 -0.51587,0.22139c-0.1849,0 -0.36981,-0.07167 -0.51276,-0.2182l-3.34693,-3.42914c-0.2859,-0.29147 -0.2859,-0.76292 0,-1.05598s0.74428,-0.29306 1.02863,0l3.34693,3.42914c0.28435,0.28988 0.28435,0.76132 0,1.05279zm0.94783,-4.13631c-0.1445,0.14812 -0.33252,0.22139 -0.51742,0.22139c-0.18646,0 -0.37292,-0.07167 -0.51276,-0.21821l-1.80554,-1.84915c-0.2859,-0.29147 -0.2859,-0.76292 0,-1.0512c0.2859,-0.29466 0.74583,-0.29784 1.03174,-0.00478l1.80398,1.85075c0.28435,0.28669 0.28435,0.75973 0,1.0512zm2.48767,-2.55155c-0.14295,0.14653 -0.32786,0.2198 -0.51587,0.2198c-0.18491,0 -0.37136,-0.07327 -0.51432,-0.2198l-1.80087,-1.84756c-0.28591,-0.29307 -0.28591,-0.76451 0,-1.05758s0.74583,-0.28987 1.03018,0.00319l1.80088,1.84916c0.28435,0.29147 0.28435,0.76451 0,1.05279zm15.12955,2.54996l-13.47163,0l13.47163,-13.80895l0,13.80895zm-0.18646,-17.86563c-0.13984,0.14653 -0.32786,0.2198 -0.51276,0.2198c-0.18801,0 -0.37603,-0.07327 -0.51898,-0.2198l-1.80243,-1.84597c-0.2859,-0.29147 -0.2859,-0.76291 0,-1.05598c0.2828,-0.29147 0.74428,-0.29147 1.02863,0l1.80243,1.84597c0.2859,0.29307 0.28746,0.76451 0.00311,1.05598zm4.03372,-0.96838c-0.14295,0.14654 -0.33097,0.21821 -0.51587,0.21821s-0.37292,-0.07167 -0.51276,-0.21821l-3.34693,-3.43073c-0.2859,-0.29147 -0.2859,-0.7661 0,-1.05757s0.74894,-0.28828 1.03174,0.00318l3.34693,3.43074c0.28434,0.29147 0.28124,0.76451 -0.00311,1.05438z" fill="#fff"/>
  <path transform="rotate(180 23.81 23.6634)" stroke="#000" id="svg_17" d="m11.76871,36.00701l-7.95867,8.15635l40,0l0,-40.99999l-32.04133,32.84364zm18.75772,-18.02331c0.28901,-0.29147 0.74584,-0.29147 1.03174,0l1.80243,1.84597c0.2859,0.29147 0.28901,0.76451 0.00311,1.05598c-0.14295,0.14494 -0.33096,0.21821 -0.51587,0.21821c-0.18801,0 -0.37292,-0.07327 -0.51276,-0.21821l-1.80865,-1.84597c-0.28435,-0.29147 -0.28435,-0.76292 0,-1.05598zm-2.48766,2.55474c0.2859,-0.29147 0.74583,-0.29147 1.02863,0l3.35003,3.43073c0.28591,0.29147 0.28591,0.76451 0.00311,1.0528c-0.14295,0.14653 -0.33096,0.22138 -0.51898,0.22138s-0.37291,-0.07326 -0.51276,-0.2182l-3.35003,-3.43073c-0.28591,-0.29147 -0.28591,-0.76451 0,-1.05598zm-2.49233,2.54995c0.2859,-0.29146 0.74583,-0.29146 1.03174,0l1.80243,1.84916c0.2859,0.29147 0.28279,0.76451 -0.00311,1.05598c-0.14295,0.14653 -0.32786,0.2198 -0.51276,0.2198c-0.18801,0 -0.37292,-0.07327 -0.51587,-0.2198l-1.80243,-1.84756c-0.28435,-0.29147 -0.28435,-0.76611 0,-1.05758zm-2.48767,2.55315c0.2859,-0.29147 0.74584,-0.28829 1.03174,0.00318l1.79932,1.84597c0.28435,0.29306 0.28435,0.76451 0,1.05598c-0.14295,0.14653 -0.32941,0.2198 -0.51587,0.2198c-0.1849,0 -0.37291,-0.07327 -0.51586,-0.2198l-1.79933,-1.84916c-0.28435,-0.29306 -0.28435,-0.7645 0,-1.05597zm-2.49077,2.55473c0.28435,-0.29306 0.74428,-0.29306 1.03018,0l3.34693,3.42914c0.2859,0.29307 0.2859,0.76611 0,1.05917c-0.14295,0.14653 -0.32786,0.21979 -0.51276,0.21979c-0.18801,0 -0.37603,-0.07326 -0.51898,-0.21979l-3.34537,-3.43233c-0.28435,-0.29306 -0.28435,-0.76451 0,-1.05598zm-3.09366,12.14136c-0.1414,0.14813 -0.32941,0.22139 -0.51587,0.22139c-0.1849,0 -0.36981,-0.07167 -0.51276,-0.2182l-3.34693,-3.42914c-0.2859,-0.29147 -0.2859,-0.76292 0,-1.05598s0.74428,-0.29306 1.02863,0l3.34693,3.42914c0.28435,0.28988 0.28435,0.76132 0,1.05279zm0.94783,-4.13631c-0.1445,0.14812 -0.33252,0.22139 -0.51742,0.22139c-0.18646,0 -0.37292,-0.07167 -0.51276,-0.21821l-1.80554,-1.84915c-0.2859,-0.29147 -0.2859,-0.76292 0,-1.0512c0.2859,-0.29466 0.74583,-0.29784 1.03174,-0.00478l1.80398,1.85075c0.28435,0.28669 0.28435,0.75973 0,1.0512zm2.48767,-2.55155c-0.14295,0.14653 -0.32786,0.2198 -0.51587,0.2198c-0.18491,0 -0.37136,-0.07327 -0.51432,-0.2198l-1.80087,-1.84756c-0.28591,-0.29307 -0.28591,-0.76451 0,-1.05758s0.74583,-0.28987 1.03018,0.00319l1.80088,1.84916c0.28435,0.29147 0.28435,0.76451 0,1.05279zm15.12955,2.54996l-13.47163,0l13.47163,-13.80895l0,13.80895zm-0.18646,-17.86563c-0.13984,0.14653 -0.32786,0.2198 -0.51276,0.2198c-0.18801,0 -0.37603,-0.07327 -0.51898,-0.2198l-1.80243,-1.84597c-0.2859,-0.29147 -0.2859,-0.76291 0,-1.05598c0.2828,-0.29147 0.74428,-0.29147 1.02863,0l1.80243,1.84597c0.2859,0.29307 0.28746,0.76451 0.00311,1.05598zm4.03372,-0.96838c-0.14295,0.14654 -0.33097,0.21821 -0.51587,0.21821s-0.37292,-0.07167 -0.51276,-0.21821l-3.34693,-3.43073c-0.2859,-0.29147 -0.2859,-0.7661 0,-1.05757s0.74894,-0.28828 1.03174,0.00318l3.34693,3.43074c0.28434,0.29147 0.28124,0.76451 -0.00311,1.05438z" fill="#fff"/>
  <path transform="rotate(-90 244.81 24.6634)" stroke="#000" id="svg_18" d="m232.76871,37.00701l-7.95867,8.15635l40,0l0,-40.99999l-32.04133,32.84364zm18.75772,-18.02331c0.28901,-0.29147 0.74584,-0.29147 1.03174,0l1.80243,1.84597c0.2859,0.29147 0.28901,0.76451 0.00311,1.05598c-0.14295,0.14494 -0.33096,0.21821 -0.51587,0.21821c-0.18801,0 -0.37292,-0.07327 -0.51276,-0.21821l-1.80865,-1.84597c-0.28435,-0.29147 -0.28435,-0.76292 0,-1.05598zm-2.48766,2.55474c0.2859,-0.29147 0.74583,-0.29147 1.02863,0l3.35003,3.43073c0.28591,0.29147 0.28591,0.76451 0.00311,1.0528c-0.14295,0.14653 -0.33096,0.22138 -0.51898,0.22138s-0.37291,-0.07326 -0.51276,-0.2182l-3.35003,-3.43073c-0.28591,-0.29147 -0.28591,-0.76451 0,-1.05598zm-2.49233,2.54995c0.2859,-0.29146 0.74583,-0.29146 1.03174,0l1.80243,1.84916c0.2859,0.29147 0.28279,0.76451 -0.00311,1.05598c-0.14295,0.14653 -0.32786,0.2198 -0.51276,0.2198c-0.18801,0 -0.37292,-0.07327 -0.51587,-0.2198l-1.80243,-1.84756c-0.28435,-0.29147 -0.28435,-0.76611 0,-1.05758zm-2.48767,2.55315c0.2859,-0.29147 0.74584,-0.28829 1.03174,0.00318l1.79932,1.84597c0.28435,0.29306 0.28435,0.76451 0,1.05598c-0.14295,0.14653 -0.32941,0.2198 -0.51587,0.2198c-0.1849,0 -0.37291,-0.07327 -0.51586,-0.2198l-1.79933,-1.84916c-0.28435,-0.29306 -0.28435,-0.7645 0,-1.05597zm-2.49077,2.55473c0.28435,-0.29306 0.74428,-0.29306 1.03018,0l3.34693,3.42914c0.2859,0.29307 0.2859,0.76611 0,1.05917c-0.14295,0.14653 -0.32786,0.21979 -0.51276,0.21979c-0.18801,0 -0.37603,-0.07326 -0.51898,-0.21979l-3.34537,-3.43233c-0.28435,-0.29306 -0.28435,-0.76451 0,-1.05598zm-3.09366,12.14136c-0.1414,0.14813 -0.32941,0.22139 -0.51587,0.22139c-0.1849,0 -0.36981,-0.07167 -0.51276,-0.2182l-3.34693,-3.42914c-0.2859,-0.29147 -0.2859,-0.76292 0,-1.05598s0.74428,-0.29306 1.02863,0l3.34693,3.42914c0.28435,0.28988 0.28435,0.76132 0,1.05279zm0.94783,-4.13631c-0.1445,0.14812 -0.33252,0.22139 -0.51742,0.22139c-0.18646,0 -0.37292,-0.07167 -0.51276,-0.21821l-1.80554,-1.84915c-0.2859,-0.29147 -0.2859,-0.76292 0,-1.0512c0.2859,-0.29466 0.74583,-0.29784 1.03174,-0.00478l1.80398,1.85075c0.28435,0.28669 0.28435,0.75973 0,1.0512zm2.48767,-2.55155c-0.14295,0.14653 -0.32786,0.2198 -0.51587,0.2198c-0.18491,0 -0.37136,-0.07327 -0.51432,-0.2198l-1.80087,-1.84756c-0.28591,-0.29307 -0.28591,-0.76451 0,-1.05758s0.74583,-0.28987 1.03018,0.00319l1.80088,1.84916c0.28435,0.29147 0.28435,0.76451 0,1.05279zm15.12955,2.54996l-13.47163,0l13.47163,-13.80895l0,13.80895zm-0.18646,-17.86563c-0.13984,0.14653 -0.32786,0.2198 -0.51276,0.2198c-0.18801,0 -0.37603,-0.07327 -0.51898,-0.2198l-1.80243,-1.84597c-0.2859,-0.29147 -0.2859,-0.76291 0,-1.05598c0.2828,-0.29147 0.74428,-0.29147 1.02863,0l1.80243,1.84597c0.2859,0.29307 0.28746,0.76451 0.00311,1.05598zm4.03372,-0.96838c-0.14295,0.14654 -0.33097,0.21821 -0.51587,0.21821s-0.37292,-0.07167 -0.51276,-0.21821l-3.34693,-3.43073c-0.2859,-0.29147 -0.2859,-0.7661 0,-1.05757s0.74894,-0.28828 1.03174,0.00318l3.34693,3.43074c0.28434,0.29147 0.28124,0.76451 -0.00311,1.05438z" fill="#fff"/>
  <rect id="svg_65" height="144" width="113" y="139.5" x="103.5" stroke-width="5" stroke="#000000" fill="#000000"/>
  <line stroke="#000000" id="svg_66" y2="347.5" x2="252.5" y1="282.5" x1="216.5" stroke-width="5" fill="none"/>
  <line id="svg_67" y2="359.5" x2="26.5" y1="283.5" x1="103.5" stroke-width="5" stroke="#000000" fill="none"/>
  <line id="svg_68" y2="95.5" x2="1.5" y1="140.5" x1="104.5" stroke-width="5" stroke="#000000" fill="none"/>
  <line stroke="#000000" id="svg_69" y2="91.5" x2="269.5" y1="140.5" x1="215.5" stroke-width="5" fill="none"/>
  <rect stroke="#000000" id="svg_78" height="66" width="202.99999" y="29.5" x="35.50001" stroke-width="5" fill="#ffffff"/>
  <text fill="#000000" stroke="#000000" stroke-width="0.5" x="44.96875" y="78.5" id="svg_1" font-size="40" font-family="'Open Sans'" text-anchor="start" xml:space="preserve">Dead End</text>
  <line fill="none" stroke="#ff0000" stroke-width="5" x1="122.5" y1="253.5" x2="186.5" y2="174.5" id="svg_4"/>
  <line fill="none" stroke="#ff0000" stroke-width="5" x1="122.5" y1="253.5" x2="186.5" y2="174.5" id="svg_5" transform="rotate(-82.8233 154.5 214)"/>
 </g>
</svg>